<svg width="26" height="24" viewBox="0 0 26 24" fill="none" xmlns="http://www.w3.org/2000/svg">
<path d="M24.7967 16.0321C24.2847 13.114 23.7727 10.1446 23.2608 7.22645C23.1072 6.30492 22.9536 5.3322 22.7488 4.41068C22.4416 2.67002 21.1106 1.18534 19.3187 0.878161C18.4484 0.724574 17.5268 0.77577 16.7077 0.77577C15.1718 0.77577 13.636 0.77577 12.0489 0.77577C10.6666 0.77577 9.3355 0.77577 7.95321 0.77577C6.72451 0.77577 5.5982 0.826965 4.52309 1.54371C3.60156 2.20925 2.98721 3.13078 2.78243 4.25709C2.01449 8.65993 1.19536 13.0628 0.478615 17.4144C0.120244 19.5135 1.04177 21.6637 2.88482 22.7388C3.90874 23.3532 5.03505 23.4555 6.16136 23.4555H14.5575H18.6532C19.5235 23.4555 20.3938 23.5067 21.2129 23.302C23.3632 22.79 24.899 20.8446 25.0526 18.6431C25.2062 17.824 24.9502 16.9025 24.7967 16.0321ZM22.2881 21.1517C21.4689 21.8685 20.445 21.9197 19.4211 21.9197C18.346 21.9197 17.2709 21.9197 16.1446 21.9197C13.2776 21.9197 10.4106 21.9197 7.59484 21.9197C6.8781 21.9197 6.21255 21.9197 5.49581 21.9197C3.70395 21.9197 2.16808 20.6398 1.9633 18.8479C1.8609 18.08 2.06569 17.312 2.21927 16.5953C2.42406 15.3154 2.68004 14.0355 2.88482 12.7556C3.24319 10.0422 3.85754 7.38004 4.31831 4.66666C4.62548 3.13078 5.80299 2.31165 7.33886 2.31165H10.513H18.2436C19.6771 2.31165 20.9058 3.02839 21.2641 4.46187C21.4177 5.07622 21.4689 5.69057 21.5713 6.30492C22.0833 9.1207 22.544 11.8853 23.056 14.701C23.4144 16.9025 24.2847 19.5135 22.2881 21.1517Z" fill="#282107"/>
<path d="M16.0932 4.76849V6.66274C16.042 7.73785 15.4789 8.81297 14.5062 9.37612C12.5095 10.6048 9.79613 9.37612 9.43776 7.02111C9.33537 6.30437 9.38657 5.53643 9.38657 4.81969C9.38657 3.84697 7.85069 3.84697 7.85069 4.81969C7.85069 5.63882 7.79949 6.45796 7.90189 7.22589C8.10667 8.71057 9.0282 10.0417 10.3081 10.8096C13.0215 12.3455 16.6052 10.8608 17.4243 7.84024C17.6803 6.86752 17.5779 5.84361 17.5779 4.81969C17.6291 3.74457 16.0932 3.74457 16.0932 4.76849Z" fill="#282107"/>
</svg>
