<svg width="40" height="51" viewBox="0 0 40 51" fill="none" xmlns="http://www.w3.org/2000/svg">
<path d="M3.1052 40.367V30.5344C3.1052 30.3365 3.26553 30.1762 3.4634 30.1762C3.66127 30.1762 3.8216 30.3365 3.8216 30.5344V40.367C3.8216 40.5648 3.66127 40.7252 3.4634 40.7252C3.26553 40.7252 3.1052 40.5648 3.1052 40.367ZM0.212827 47.6051V47.5894C0.211394 47.5478 0.209961 47.5063 0.209961 47.4633V45.0247C0.209961 44.8269 0.370434 44.6665 0.568159 44.6665C0.765884 44.6665 0.926357 44.8269 0.926357 45.0247V47.4633C0.926357 47.4977 0.92779 47.5306 0.929223 47.565C0.929223 47.5908 0.930656 47.6123 0.933521 47.6352C0.933521 47.6438 0.934954 47.6538 0.934954 47.6624C0.936387 47.6839 0.939252 47.7054 0.942118 47.7255C0.942118 47.7327 0.943551 47.7398 0.943551 47.747C0.946416 47.7742 0.949282 47.8 0.95358 47.8258C0.960744 47.8688 0.967908 47.9089 0.975072 47.949C0.982236 47.9863 0.992266 48.0221 1.0023 48.0593C1.00946 48.0894 1.01662 48.1166 1.02522 48.1453C1.03238 48.1725 1.03811 48.1883 1.04385 48.2055L1.10546 48.3717C1.10975 48.3817 1.11692 48.4018 1.12552 48.4204C1.14844 48.4734 1.1685 48.515 1.19142 48.5565C1.19286 48.5594 1.19572 48.5665 1.19859 48.5694C1.20575 48.5852 1.21435 48.6024 1.22294 48.6181C1.36193 48.8631 1.52956 49.0723 1.72872 49.2485C1.75021 49.2686 1.76741 49.2829 1.78317 49.2973C1.79033 49.303 1.79749 49.3073 1.80466 49.3144C1.82902 49.3345 1.85481 49.3546 1.8806 49.3732C1.88346 49.3761 1.88919 49.3804 1.89349 49.3847L1.96227 49.4334C2.09408 49.5236 2.23306 49.601 2.37348 49.6612C2.39927 49.6727 2.41359 49.6784 2.42792 49.6841C2.43222 49.6855 2.43795 49.687 2.44225 49.6898C2.49097 49.7085 2.53825 49.7257 2.58696 49.7414L2.66147 49.7644C2.67006 49.7672 2.68153 49.7701 2.69442 49.7744L2.76749 49.7916C2.79472 49.7987 2.82051 49.8045 2.8463 49.8088C2.8549 49.8102 2.86349 49.8116 2.87352 49.8145C2.88498 49.8174 2.89788 49.8188 2.91077 49.8217L2.95089 49.8288C2.95806 49.8288 2.96809 49.8303 2.97525 49.8317C3.00391 49.836 3.03256 49.8403 3.06122 49.8432C3.06838 49.8432 3.07554 49.8446 3.08414 49.8446C3.09704 49.8475 3.10993 49.8475 3.12426 49.8489L3.21739 49.8546C3.24748 49.8561 3.2876 49.8575 3.32628 49.8575H22.8309V49.8503H24.1648V22.7204H0.926357V41.0831C0.926357 41.2808 0.765884 41.4413 0.568159 41.4413C0.370434 41.4413 0.209961 41.2808 0.209961 41.0831V22.3622C0.209961 22.3586 0.210964 22.3552 0.210964 22.3516C0.211107 22.3487 0.21168 22.346 0.211824 22.3433C0.213256 22.3158 0.217985 22.2894 0.225292 22.2639C0.226725 22.2589 0.228301 22.254 0.23002 22.249C0.239477 22.2211 0.251226 22.1943 0.266843 22.1699L0.267416 22.1686L0.267989 22.1676C0.269852 22.1646 0.271714 22.1618 0.273577 22.1589L8.08029 10.012V1.77298C8.08029 1.11174 8.61959 0.57373 9.2824 0.57373H31.5623C32.2244 0.57373 32.763 1.11174 32.763 1.77298V3.03813C32.763 3.236 32.6027 3.39633 32.4048 3.39633C32.2069 3.39633 32.0466 3.236 32.0466 3.03813V1.77298C32.0466 1.50676 31.8292 1.29013 31.5623 1.29013H9.2824C9.01461 1.29013 8.79668 1.50676 8.79668 1.77298V9.72025H32.0466V6.97974C32.0466 6.78188 32.2069 6.62155 32.4048 6.62155C32.6027 6.62155 32.763 6.78188 32.763 6.97974V10.0773C32.763 10.0946 32.7604 10.1115 32.758 10.1286C32.7564 10.1399 32.755 10.1511 32.7522 10.162C32.7487 10.1766 32.7444 10.1908 32.7389 10.205C32.7349 10.2156 32.7302 10.2257 32.7253 10.2358C32.7328 10.2459 32.7409 10.2552 32.7474 10.2664L38.5989 20.4221C39.3898 21.7932 39.8067 23.355 39.8067 24.9368V47.4803C39.8067 49.1811 38.4212 50.5666 36.7176 50.5666H25.5189H24.5833C24.5604 50.5709 24.536 50.5737 24.5117 50.5737H3.32628C3.279 50.5737 3.23315 50.5723 3.18587 50.5709L3.06552 50.5637C3.04259 50.5608 3.01967 50.5594 2.99531 50.5565C2.95376 50.5522 2.91364 50.5465 2.87352 50.5408C2.86349 50.5393 2.85203 50.5378 2.842 50.5365C2.8377 50.535 2.81621 50.5322 2.81191 50.5322L2.78755 50.5279C2.76463 50.5236 2.7417 50.5193 2.71878 50.5136C2.67723 50.5064 2.63568 50.4978 2.59699 50.4878L2.50816 50.4663C2.49383 50.462 2.48094 50.4577 2.46804 50.4534L2.36918 50.4247C2.30327 50.4018 2.24166 50.3803 2.18005 50.3559C2.1471 50.3431 2.11271 50.3302 2.07975 50.3144C1.90782 50.2413 1.72586 50.1396 1.55249 50.0207L1.48228 49.9705C1.46652 49.9605 1.45076 49.949 1.43643 49.9361C1.41637 49.9204 1.38915 49.8989 1.36193 49.8774C1.35476 49.8717 1.3476 49.8659 1.34043 49.8602C1.30748 49.833 1.27596 49.8058 1.24444 49.7771C0.993698 49.555 0.775914 49.2842 0.605412 48.979C0.591084 48.9575 0.575323 48.9246 0.558129 48.8916C0.529474 48.8386 0.500818 48.777 0.473595 48.714C0.463565 48.6939 0.45067 48.6653 0.439208 48.6352L0.42488 48.5993C0.416283 48.5764 0.407686 48.5549 0.399089 48.532L0.371867 48.4532C0.356106 48.4117 0.347509 48.3787 0.33748 48.3457C0.328883 48.3171 0.318853 48.2784 0.308824 48.2411C0.294496 48.1867 0.281601 48.1366 0.273004 48.085C0.262975 48.0377 0.252945 47.989 0.245781 47.9388C0.238617 47.8973 0.234319 47.8557 0.23002 47.8113C0.225722 47.7784 0.222856 47.7454 0.21999 47.7124C0.21999 47.7038 0.218558 47.6967 0.218558 47.6881C0.215692 47.661 0.214259 47.6338 0.212827 47.6051ZM23.7737 22.004H24.3161L31.75 10.4371H8.6587L1.22481 22.004H23.7737ZM32.2948 10.9146L24.8697 22.4679V49.8503H25.5188H36.7175C38.0256 49.8503 39.0902 48.7872 39.0902 47.4805V24.9369C39.0902 23.4798 38.7062 22.0427 37.9784 20.779L32.2948 10.9146Z" fill="#282107"/>
</svg>
