<svg width="26" height="26" viewBox="0 0 26 26" fill="none" xmlns="http://www.w3.org/2000/svg">
<path d="M12.784 22.75H13.2173C14.0298 22.75 14.436 22.75 14.7208 22.5431C14.8127 22.4763 14.8936 22.3954 14.9604 22.3034C15.1673 22.0187 15.1673 21.6124 15.1673 20.8V14.625H16.5215C17.2822 14.625 17.6626 14.625 17.9359 14.4424C18.0541 14.3634 18.1557 14.2618 18.2347 14.1435C18.4173 13.8703 18.4173 13.4899 18.4173 12.7292C18.4173 11.9684 18.4173 11.588 18.2347 11.3148C18.1557 11.1965 18.0541 11.0949 17.9359 11.0159C17.6626 10.8333 17.2822 10.8333 16.5215 10.8333H15.1673V8.66667C15.1673 8.1619 15.1673 7.90951 15.2498 7.71043C15.3597 7.44498 15.5706 7.23408 15.8361 7.12413C16.0352 7.04167 16.2875 7.04167 16.7923 7.04167C17.2971 7.04167 17.5495 7.04167 17.7486 6.9592C18.014 6.84925 18.2249 6.63835 18.3349 6.37291C18.4173 6.17382 18.4173 5.92144 18.4173 5.41668V5.41667V4.93519C18.4173 4.37384 18.4173 4.09316 18.3158 3.8755C18.2082 3.64467 18.0227 3.45914 17.7918 3.3515C17.5742 3.25 17.2935 3.25 16.7321 3.25C14.7674 3.25 13.7851 3.25 13.0232 3.60525C12.2153 3.98198 11.566 4.63133 11.1892 5.43924C10.834 6.20107 10.834 7.18343 10.834 9.14815V10.8333H9.47982C8.71907 10.8333 8.33869 10.8333 8.06545 11.0159C7.94716 11.0949 7.8456 11.1965 7.76656 11.3148C7.58398 11.588 7.58398 11.9684 7.58398 12.7292C7.58398 13.4899 7.58398 13.8703 7.76656 14.1435C7.8456 14.2618 7.94716 14.3634 8.06545 14.4424C8.33869 14.625 8.71907 14.625 9.47982 14.625H10.834V20.8C10.834 21.6124 10.834 22.0187 11.0409 22.3034C11.1077 22.3954 11.1886 22.4763 11.2806 22.5431C11.5653 22.75 11.9715 22.75 12.784 22.75Z" fill="#FFCFEB"/>
</svg>
