<svg width="24" height="24" viewBox="0 0 24 24" fill="none" xmlns="http://www.w3.org/2000/svg">
<path fill-rule="evenodd" clip-rule="evenodd" d="M2.25 10.8C2.25 7.23775 2.25 5.45663 3.15717 4.20802C3.45015 3.80477 3.80477 3.45015 4.20802 3.15717C5.45663 2.25 7.23775 2.25 10.8 2.25H13.2C16.7622 2.25 18.5434 2.25 19.792 3.15717C20.1952 3.45015 20.5499 3.80477 20.8428 4.20802C21.75 5.45663 21.75 7.23775 21.75 10.8V13.2C21.75 16.7622 21.75 18.5434 20.8428 19.792C20.5499 20.1952 20.1952 20.5499 19.792 20.8428C18.5434 21.75 16.7622 21.75 13.2 21.75H10.8C7.23775 21.75 5.45663 21.75 4.20802 20.8428C3.80477 20.5499 3.45015 20.1952 3.15717 19.792C2.25 18.5434 2.25 16.7622 2.25 13.2V10.8ZM7.5 9.75C7.91421 9.75 8.25 10.0858 8.25 10.5V16.5C8.25 16.9142 7.91421 17.25 7.5 17.25C7.08579 17.25 6.75 16.9142 6.75 16.5V10.5C6.75 10.0858 7.08579 9.75 7.5 9.75ZM11 9.75C11.4142 9.75 11.75 10.0858 11.75 10.5V10.7261C12.4773 10.1168 13.4145 9.75 14.4375 9.75C15.9908 9.75 17.25 11.0092 17.25 12.5625V16.5C17.25 16.9142 16.9142 17.25 16.5 17.25C16.0858 17.25 15.75 16.9142 15.75 16.5V12.5625C15.75 11.8376 15.1624 11.25 14.4375 11.25C12.9532 11.25 11.75 12.4532 11.75 13.9375V16.5C11.75 16.9142 11.4142 17.25 11 17.25C10.5858 17.25 10.25 16.9142 10.25 16.5V13.9375V10.5C10.25 10.0858 10.5858 9.75 11 9.75ZM7.5 8.5C8.05228 8.5 8.5 8.05228 8.5 7.5C8.5 6.94772 8.05228 6.5 7.5 6.5C6.94772 6.5 6.5 6.94772 6.5 7.5C6.5 8.05228 6.94772 8.5 7.5 8.5Z" fill="#282107"/>
</svg>
