<svg width="26" height="26" viewBox="0 0 26 26" fill="none" xmlns="http://www.w3.org/2000/svg">
<path fill-rule="evenodd" clip-rule="evenodd" d="M14.1966 3.27734H11.8034C8.25111 3.27734 6.47498 3.27734 5.22987 4.18197C4.82775 4.47413 4.47413 4.82775 4.18197 5.22987C3.27734 6.47498 3.27734 8.25111 3.27734 11.8034V14.1966C3.27734 17.7489 3.27734 19.525 4.18197 20.7701C4.47413 21.1722 4.82775 21.5259 5.22987 21.818C6.47498 22.7227 8.25111 22.7227 11.8034 22.7227H14.1966C17.7489 22.7227 19.525 22.7227 20.7701 21.818C21.1722 21.5259 21.5259 21.1722 21.818 20.7701C22.7227 19.525 22.7227 17.7489 22.7227 14.1966V11.8034C22.7227 8.25111 22.7227 6.47498 21.818 5.22987C21.5259 4.82775 21.1722 4.47413 20.7701 4.18197C19.525 3.27734 17.7489 3.27734 14.1966 3.27734ZM16.9891 13C16.9891 15.2029 15.2033 16.9888 13.0003 16.9888C10.7974 16.9888 9.01154 15.2029 9.01154 13C9.01154 10.7971 10.7974 9.01122 13.0003 9.01122C15.2033 9.01122 16.9891 10.7971 16.9891 13ZM18.4851 8.5126C19.0358 8.5126 19.4823 8.06614 19.4823 7.51541C19.4823 6.96467 19.0358 6.51821 18.4851 6.51821C17.9344 6.51821 17.4879 6.96467 17.4879 7.51541C17.4879 8.06614 17.9344 8.5126 18.4851 8.5126Z" fill="#FFCFEB"/>
</svg>
