<svg width="131" height="131" viewBox="0 0 131 131" fill="none" xmlns="http://www.w3.org/2000/svg">
<path d="M0.0917969 65.0934C0.0917969 29.1933 29.1933 0.0917969 65.0913 0.0917969C100.99 0.0917969 130.092 29.1933 130.092 65.0934C130.092 100.992 100.99 130.094 65.0913 130.094C29.1933 130.094 0.0917969 100.992 0.0917969 65.0934Z" fill="#876825"/>
<path d="M67.0202 127.248C101.347 126.173 128.304 97.4742 127.229 63.1476C126.154 28.8211 97.4546 1.86532 63.1274 2.9403C28.8003 4.01528 1.84408 32.7139 2.91904 67.0405C3.994 101.367 32.6931 128.323 67.0202 127.248Z" fill="#8AB600"/>
<path d="M29.2647 35.1521L48.7838 48.3857L36.0252 28.5513L52.4814 45.4464L43.9756 23.4485L56.6941 43.3086L52.7905 20.0486L61.2508 42.0641L62.1101 18.4961L65.9653 41.7632L71.5503 18.8494L70.6436 42.4154L80.7267 21.0964L75.0954 43.9989L89.2623 25.1453L79.136 46.4426L96.811 30.8271L82.6028 49.6518L103.058 37.9122L85.3536 53.4936L107.752 46.1109L87.2719 57.8094L110.7 55.0874L88.2846 62.4228L111.779 64.472L88.3475 67.1455L110.949 73.8823L87.4583 71.7847L108.241 82.9351L85.6533 76.1499L103.765 91.2554L83.0066 80.0638L97.7073 98.5043L79.6264 83.3627L90.3142 104.387L75.6507 85.9146L81.8878 108.658L71.2432 87.6134L72.7742 111.147L66.5844 88.3903L63.3454 111.751L61.8638 88.2141L53.9886 110.446L57.2761 87.0911L45.0883 107.282L53.0068 85.0667L37.0039 102.39L49.234 82.2263L30.0714 95.9729L46.1093 78.6812L24.5719 88.2914L43.7624 74.5818L20.7311 79.6589L42.2891 70.0951L18.7067 70.432L41.7482 65.4023L18.582 60.9846L42.1644 60.6962L20.3603 51.7062L43.5182 56.1713L23.9713 42.9758L45.7559 52.0122L29.2647 35.1521Z" fill="#C3DC7D"/>
<path d="M40.0137 65.0931C40.0137 51.2414 51.2413 40.0127 65.092 40.0127C78.9427 40.0127 90.1703 51.2404 90.1703 65.0931C90.1703 78.9427 78.9427 90.1714 65.092 90.1714C51.2413 90.1714 40.0137 78.9427 40.0137 65.0931Z" fill="#E6FC9A"/>
<path d="M36.9413 65.3476C36.9413 66.1965 34.9365 66.8827 32.4628 66.8827C29.9902 66.8827 27.9854 66.1965 27.9854 65.3476C27.9854 64.5007 29.9902 63.8125 32.4628 63.8125C34.9375 63.8125 36.9413 64.5007 36.9413 65.3476Z" fill="#325927"/>
<path d="M37.8485 57.9952C37.6259 58.8132 35.5119 58.9543 33.1248 58.3073C30.7377 57.6624 28.9801 56.4745 29.2026 55.6565C29.4241 54.8405 31.5392 54.6994 33.9263 55.3443C36.3124 55.9893 38.071 57.1761 37.8485 57.9952Z" fill="#325927"/>
<path d="M40.6433 51.13C40.2158 51.8615 38.1378 51.4484 36.001 50.2008C33.8664 48.9562 32.4807 47.3511 32.9072 46.6175C33.3348 45.8881 35.4128 46.3023 37.5474 47.5499C39.6852 48.7945 41.0719 50.3975 40.6433 51.13Z" fill="#325927"/>
<path d="M40.6433 51.13C40.2158 51.8615 38.1378 51.4484 36.001 50.2008C33.8664 48.9562 32.4807 47.3511 32.9072 46.6175C33.3348 45.8881 35.4128 46.3023 37.5474 47.5499C39.6852 48.7945 41.0719 50.3975 40.6433 51.13Z" fill="#325927"/>
<path d="M45.1329 45.2347C44.5291 45.8312 42.6304 44.8896 40.8954 43.1258C39.1574 41.3682 38.2384 39.455 38.8432 38.8584C39.4459 38.264 41.3446 39.2087 43.0806 40.9694C44.8186 42.7301 45.7386 44.6392 45.1329 45.2347Z" fill="#325927"/>
<path d="M51.0051 40.716C50.2675 41.1322 48.6809 39.729 47.4662 37.5758C46.2454 35.4226 45.859 33.3384 46.5967 32.918C47.3343 32.5039 48.9189 33.9102 50.1366 36.0614C51.3564 38.2146 51.7459 40.2987 51.0051 40.716Z" fill="#325927"/>
<path d="M57.8519 37.885C57.0318 38.0952 55.8666 36.3252 55.2567 33.9289C54.6385 31.5335 54.8095 29.4184 55.6317 29.2093C56.4528 28.9991 57.6139 30.7722 58.2289 33.1644C58.843 35.5639 58.6761 37.6748 57.8519 37.885Z" fill="#325927"/>
<path d="M65.2032 36.9405C64.3564 36.9281 63.6929 34.9161 63.7289 32.4455C63.7578 29.9719 64.4738 27.9742 65.3227 27.9824C66.1706 27.9979 66.8279 30.011 66.797 32.4816C66.7651 34.9552 66.0532 36.9518 65.2032 36.9405Z" fill="#325927"/>
<path d="M72.547 37.9428C71.731 37.712 71.6167 35.5959 72.2966 33.2171C72.9694 30.8351 74.183 29.0991 74.998 29.3279C75.8139 29.5617 75.9231 31.6758 75.2483 34.0536C74.5725 36.4355 73.3619 38.1777 72.547 37.9428Z" fill="#325927"/>
<path d="M79.3716 40.8297C78.6443 40.3949 79.0862 38.3189 80.3627 36.2028C81.6361 34.0794 83.2587 32.7205 83.9871 33.1522C84.7134 33.5932 84.2663 35.6619 82.995 37.7832C81.7196 39.9034 80.0969 41.2706 79.3716 40.8297Z" fill="#325927"/>
<path d="M85.2068 45.3975C84.6175 44.7876 85.5859 42.9022 87.3723 41.19C89.1536 39.4715 91.0761 38.5834 91.6664 39.1892C92.2506 39.8043 91.2801 41.6876 89.4998 43.3999C87.7144 45.1142 85.7919 46.0115 85.2068 45.3975Z" fill="#325927"/>
<path d="M89.6496 51.3286C89.2385 50.5878 90.6675 49.0198 92.8393 47.8329C95.0069 46.6399 97.0931 46.2824 97.5052 47.0232C97.9101 47.7701 96.4812 49.332 94.3156 50.5239C92.1438 51.7129 90.0534 52.0755 89.6496 51.3286Z" fill="#325927"/>
<path d="M92.3886 58.2134C92.1867 57.3913 93.9752 56.2498 96.3808 55.6708C98.7844 55.0856 100.892 55.2834 101.096 56.1055C101.291 56.9328 99.5056 58.0692 97.1051 58.6544C94.6964 59.2344 92.5854 59.0417 92.3886 58.2134Z" fill="#325927"/>
<path d="M93.2376 65.5767C93.2551 64.7308 95.2816 64.0941 97.7552 64.1611C100.227 64.225 102.21 64.9678 102.194 65.8136C102.164 66.6625 100.144 67.2931 97.6738 67.2323C95.1971 67.1633 93.2108 66.4246 93.2376 65.5767Z" fill="#325927"/>
<path d="M92.1361 72.9058C92.3751 72.093 94.4953 72.0064 96.8669 72.7163C99.2355 73.424 100.956 74.6593 100.719 75.4691C100.47 76.282 98.3567 76.3623 95.9881 75.6576C93.6144 74.9478 91.8878 73.7187 92.1361 72.9058Z" fill="#325927"/>
<path d="M89.1576 79.6921C89.5996 78.9699 91.6693 79.4407 93.7731 80.745C95.8769 82.0473 97.2141 83.6864 96.7732 84.4107C96.3209 85.1267 94.2583 84.6528 92.1576 83.3588C90.0498 82.0494 88.7063 80.4113 89.1576 79.6921Z" fill="#325927"/>
<path d="M84.5138 85.4649C85.1299 84.8859 87.0039 85.8781 88.6956 87.6872C90.3872 89.4922 91.2496 91.427 90.6345 92.008C90.0112 92.5808 88.1454 91.5856 86.4558 89.7858C84.76 87.9756 83.8915 86.0439 84.5138 85.4649Z" fill="#325927"/>
<path d="M78.5223 89.8287C79.2692 89.43 80.8176 90.8775 81.9798 93.0647C83.1398 95.2478 83.4685 97.3413 82.7236 97.74C81.9726 98.1336 80.4313 96.684 79.2692 94.5071C78.105 92.3178 77.7691 90.2233 78.5223 89.8287Z" fill="#325927"/>
<path d="M71.6021 92.476C72.4262 92.2833 73.5441 94.0894 74.0952 96.5032C74.6454 98.9151 74.4177 101.017 73.5925 101.208C72.7652 101.392 71.6556 99.5919 71.1013 97.1873C70.5501 94.7704 70.7727 92.6625 71.6021 92.476Z" fill="#325927"/>
<path d="M64.2275 93.2261C65.0754 93.256 65.6812 95.2928 65.5844 97.7633C65.4865 100.234 64.7179 102.207 63.87 102.178C63.0232 102.139 62.4236 100.111 62.5163 97.6469C62.6142 95.166 63.3776 93.189 64.2275 93.2261Z" fill="#325927"/>
<path d="M56.9154 92.0263C57.7252 92.2777 57.7787 94.399 57.0411 96.7613C56.3014 99.1216 55.0455 100.825 54.2357 100.573C53.427 100.316 53.3765 98.2037 54.111 95.8465C54.8528 93.4789 56.1046 91.7708 56.9154 92.0263Z" fill="#325927"/>
<path d="M50.1676 88.9607C50.8857 89.414 50.383 91.4735 49.055 93.5649C47.726 95.6491 46.0683 96.9657 45.3512 96.5124C44.6393 96.0508 45.141 93.9996 46.4639 91.9144C47.7981 89.822 49.4516 88.5002 50.1676 88.9607Z" fill="#325927"/>
<path d="M44.4554 84.2386C45.0313 84.865 44.0082 86.7246 42.1806 88.3915C40.3539 90.0584 38.4088 90.896 37.837 90.2717C37.2683 89.6422 38.2903 87.7919 40.1108 86.1281C41.9436 84.4539 43.8856 83.6091 44.4554 84.2386Z" fill="#325927"/>
<path d="M40.1731 78.1903C40.5656 78.9455 39.0934 80.4723 36.8938 81.6056C34.6952 82.7399 32.5997 83.0398 32.2082 82.2887C31.825 81.5304 33.2941 80.0129 35.4865 78.8786C37.6933 77.7432 39.7898 77.4341 40.1731 78.1903Z" fill="#325927"/>
<path d="M37.6171 71.2347C37.7985 72.0662 35.978 73.1541 33.56 73.6764C31.1431 74.1977 29.0403 73.9401 28.858 73.1118C28.6859 72.2814 30.5012 71.1987 32.913 70.6774C35.3413 70.155 37.443 70.4044 37.6171 71.2347Z" fill="#325927"/>
</svg>
