<svg width="64" height="46" viewBox="0 0 64 46" fill="none" xmlns="http://www.w3.org/2000/svg">
<path d="M25.2987 14.2157C25.2718 12.9759 25.1252 11.743 24.8802 10.5226C24.7962 10.1041 24.528 9.76556 24.1793 9.53904C24.1301 9.35892 24.079 9.17911 24.023 9.00022C23.3896 6.97303 22.4267 5.05068 21.1563 3.34906C20.8397 2.92504 20.4039 2.61653 19.9265 2.51264C19.8094 2.35597 19.6902 2.19993 19.5668 2.04512C19.238 1.63242 18.7005 1.48603 18.1794 1.54055C17.9397 1.47667 17.6918 1.44622 17.4473 1.45732C16.5184 1.49971 15.5658 2.04202 14.7594 2.47416C13.2264 3.29586 11.8134 4.37823 10.5559 5.57611C8.66893 7.37381 7.12748 9.49152 5.77499 11.7184C4.8817 12.5299 4.24001 13.6046 4.07038 14.8218C4.06143 14.8855 4.05526 14.9492 4.05053 15.0126C3.79059 15.5208 3.54226 16.0353 3.30968 16.5576C3.15394 16.9074 2.99913 17.257 2.85964 17.6062C2.75081 17.7605 2.65679 17.9299 2.58078 18.1109C0.996216 21.8856 1.33371 26.0755 1.73994 30.0473C1.79394 30.5757 2.01778 31.0629 2.38111 31.393C2.56493 32.6102 2.86057 33.8049 3.32337 34.9444C4.50161 37.8453 6.69832 39.9018 9.06384 41.8375C9.41811 42.2639 9.90272 42.593 10.4888 42.8145C10.5385 42.8333 10.5881 42.849 10.6375 42.8621C10.9998 43.095 11.3922 43.2798 11.8229 43.3911C13.133 43.7294 14.5244 43.2897 15.605 42.5339C17.615 41.128 18.9525 38.9606 20.2703 36.9368C22.9064 32.8889 24.3507 28.2742 25.015 23.5146C25.3948 20.7936 25.577 18.0595 25.6446 15.314C25.656 14.8553 25.5206 14.4902 25.2987 14.2157Z" fill="#FBEECB"/>
<path d="M63.2781 26.0725C62.6418 23.5623 60.1565 23.0381 58.2871 21.7244C57.3944 21.0971 56.6578 20.2699 56.0283 19.3845C54.8788 17.7679 53.9962 15.9801 52.8598 14.3534C51.8335 12.8845 50.6812 11.5022 49.4216 10.2276C46.879 7.65495 43.9025 5.50555 40.6827 3.86091C37.3268 2.14684 33.6971 0.964809 29.9717 0.393179C27.0636 -0.0530572 24.0965 -0.125892 21.1726 0.210173C18.3496 0.534615 15.6229 0.93168 13.1957 2.56757C8.80419 5.52725 5.26486 9.76227 3.17615 14.6322C1.6816 18.1167 0.904127 21.8969 0.895589 25.6887C0.887051 29.4624 1.54756 33.4969 3.3824 36.835C4.27199 38.4536 5.48849 39.8806 6.85456 41.1162C8.99296 43.0506 11.386 44.3687 14.1861 45.123C17.1164 45.9125 20.1772 46.0659 23.198 45.9788C23.5014 45.97 23.8045 45.9587 24.1077 45.9454C28.1638 45.767 32.2199 45.2683 36.1761 44.3451C40.0721 43.4361 43.889 42.0991 47.4181 40.2026C49.1451 39.2745 50.7949 38.2081 52.3423 37.0041C53.9256 35.7721 55.3062 34.3709 56.7049 32.9401C57.7456 31.8755 59.194 31.1196 60.5324 30.4733C61.2116 30.1453 61.9253 29.8435 62.4621 29.3135C63.0638 28.7194 63.3726 27.8766 63.3875 27.0272C63.3932 26.7057 63.3568 26.383 63.2781 26.0725ZM8.27546 41.1143C6.92194 39.995 5.67828 38.7206 4.71812 37.244C2.74956 34.2163 2.00018 30.4144 1.85853 26.8517C1.71627 23.2736 2.28255 19.6797 3.51726 16.3183C5.31486 11.4244 8.61677 7.16313 12.7924 4.06047C14.0364 3.13621 15.4439 2.19314 16.9651 1.81284C18.8036 1.35334 20.0478 2.42912 21.185 3.79303C22.301 5.13143 23.1437 6.71064 23.7432 8.34179C24.865 11.3944 25.3229 14.6975 25.3567 17.9392C25.4248 24.4835 23.5194 31.0831 20.0281 36.6136C19.1439 38.0142 18.1644 39.3751 17.0527 40.6052C16.0137 41.7546 14.7205 42.9129 13.1339 43.1647C11.2794 43.4592 9.62147 42.2273 8.27546 41.1143Z" fill="#F9D72A"/>
<path d="M28.4769 3.29736C27.2391 3.29736 27.2372 5.22099 28.4769 5.22099C29.7147 5.22099 29.7168 3.29736 28.4769 3.29736Z" fill="#EDC620"/>
<path d="M34.4613 5.09326C33.2235 5.09326 33.2215 7.01686 34.4613 7.01686C35.699 7.01697 35.7011 5.09326 34.4613 5.09326Z" fill="#EDC620"/>
<path d="M39.6098 7.0083C38.372 7.0083 38.3699 8.9319 39.6098 8.9319C40.8475 8.9319 40.8495 7.0083 39.6098 7.0083Z" fill="#EDC620"/>
<path d="M35.8978 14.0713C34.6601 14.0713 34.658 15.9949 35.8978 15.9949C37.1355 15.9949 37.1375 14.0713 35.8978 14.0713Z" fill="#EDC620"/>
<path d="M45.7142 16.4653C44.4764 16.4653 44.4745 18.3889 45.7142 18.3889C46.9519 18.3889 46.954 16.4653 45.7142 16.4653Z" fill="#EDC620"/>
<path d="M51.3402 21.4932C50.1024 21.4932 50.1005 23.4168 51.3402 23.4168C52.5779 23.4168 52.58 21.4932 51.3402 21.4932Z" fill="#EDC620"/>
<path d="M42.3627 20.6548C41.1249 20.6548 41.1229 22.5784 42.3627 22.5784C43.6004 22.5784 43.6025 20.6548 42.3627 20.6548Z" fill="#EDC620"/>
<path d="M30.1522 9.86377C29.2 9.86377 29.1985 11.3435 30.1522 11.3435C31.1043 11.3435 31.1059 9.86377 30.1522 9.86377Z" fill="#EDC620"/>
<path d="M45.8338 11.061C44.8817 11.061 44.8801 12.5408 45.8338 12.5408C46.786 12.5408 46.7876 11.061 45.8338 11.061Z" fill="#EDC620"/>
<path d="M40.8058 15.7861C40.2345 15.7861 40.2335 16.674 40.8058 16.674C41.377 16.674 41.3779 15.7861 40.8058 15.7861Z" fill="#EDC620"/>
<path d="M31.2296 16.624C30.6584 16.624 30.6573 17.5119 31.2296 17.5119C31.8009 17.5119 31.8018 16.624 31.2296 16.624Z" fill="#EDC620"/>
<path d="M52.0587 17.3423C51.4874 17.3423 51.4865 18.2301 52.0587 18.2301C52.6299 18.2301 52.6309 17.3423 52.0587 17.3423Z" fill="#EDC620"/>
<path d="M36.1378 9.80078C35.5665 9.80078 35.5656 10.6886 36.1378 10.6886C36.7091 10.6885 36.7101 9.80078 36.1378 9.80078Z" fill="#EDC620"/>
<path d="M31.7091 2.25928C31.1378 2.25928 31.1369 3.14713 31.7091 3.14713C32.2804 3.14713 32.2814 2.25928 31.7091 2.25928Z" fill="#EDC620"/>
<path d="M48.3478 14.1104C47.7765 14.1104 47.7755 14.9982 48.3478 14.9982C48.9191 14.9982 48.92 14.1104 48.3478 14.1104Z" fill="#EDC620"/>
<path d="M22.3232 8.92216C22.0388 8.25497 21.7079 7.62243 21.3995 7.07518C21.1205 6.58029 20.813 6.09548 20.4144 5.6908C20.1256 5.39753 19.7932 5.15055 19.4513 4.92136C18.8445 4.51452 18.1886 4.15417 17.4706 4.01972C16.5345 3.84433 15.8114 4.12538 15.1329 4.73918C14.1815 5.59987 14.087 6.8997 13.917 8.09378C13.663 9.87728 13.3842 11.6591 13.1548 13.4459C12.9315 15.1854 12.8876 16.9646 12.7637 18.7146C12.7474 18.9462 12.7314 19.1833 12.7941 19.4068C12.8906 19.7511 13.1827 20.0331 13.5301 20.1175C14.1214 20.2611 14.4538 19.8039 14.9063 19.5437C15.3547 19.2858 15.7904 19.0147 16.2161 18.7208C17.6861 17.706 19.1114 16.6266 20.485 15.4846C21.5466 14.602 22.9491 13.7216 23.0483 12.1879C23.1155 11.1495 22.7791 9.99146 22.3232 8.92216Z" fill="#F7CE21"/>
<path d="M23.4271 16.8469C23.4025 16.6288 23.2428 16.375 22.9832 16.403C21.266 16.5879 20.2508 17.8315 18.8707 18.6412C17.9089 19.2055 16.9243 19.7283 15.9558 20.2787C15.7777 20.352 15.622 20.4433 15.4884 20.5485C14.9633 20.855 14.4443 21.1719 13.9393 21.5136C13.5887 21.7509 13.1209 21.9951 13.0792 22.4642C13.0291 23.0293 13.6052 23.4545 13.9647 23.795C14.9584 24.7359 16.0895 25.5152 17.2135 26.2899C18.3276 27.0578 19.4418 27.8257 20.5559 28.5937C21.5552 29.2824 21.8778 28.4625 22.1945 27.5837C22.6058 26.4423 22.926 25.2685 23.1538 24.0769C23.6099 21.6919 23.6989 19.2588 23.4271 16.8469Z" fill="#F7CE21"/>
<path d="M12.9429 6.92145C12.9243 6.71274 12.8159 6.56256 12.617 6.49344C12.0272 6.28822 11.6224 6.7149 11.2958 7.15579C10.7176 7.93645 10.179 8.75093 9.64943 9.56512C8.58918 11.1953 7.59652 12.8733 6.69376 14.5959C6.40779 15.1415 6.06452 15.7696 6.18487 16.4101C6.35491 17.3151 7.70535 17.9753 8.37769 18.4998C9.28158 19.2051 10.1856 19.9102 11.0895 20.6155C11.1885 20.6927 11.2933 20.7727 11.4174 20.7927C12.0268 20.8912 12.1865 17.4972 12.2286 16.9706C12.344 15.5269 12.3955 14.0787 12.5145 12.6352C12.5985 11.6169 12.6784 10.5983 12.7543 9.57944C12.8179 8.72431 13.0184 7.76774 12.9429 6.92145Z" fill="#F7CE21"/>
<path d="M20.1481 31.8884C19.942 30.7273 19.0668 30.1892 18.1259 29.6258C16.8463 28.8596 15.6965 27.8932 14.7202 26.7655C13.8677 25.7807 13.2636 24.5083 12.0938 23.8506C11.8273 23.7007 11.4761 23.8757 11.3607 24.139C11.0777 24.7839 11.138 25.3881 11.1101 26.0624C11.0763 26.8806 11.0707 27.6981 11.1001 28.5166C11.1576 30.122 11.3301 31.7211 11.5478 33.3119C11.7575 34.8437 12.0027 36.3705 12.2388 37.8984C12.3665 38.7254 12.3226 40.3247 13.5889 39.9742C14.0718 39.8404 14.4733 39.4292 14.8507 39.121C15.4208 38.6554 15.9781 38.1742 16.5222 37.6785C17.4785 36.8072 18.4685 35.907 19.2534 34.8737C19.8994 34.023 20.3408 32.974 20.1481 31.8884Z" fill="#F7CE21"/>
<path d="M10.8169 21.6161C10.7846 21.46 10.6463 21.3516 10.5165 21.2589C10.3039 21.1069 10.0873 20.9653 9.86803 20.8305C8.91507 20.2453 7.91036 19.7911 6.95648 19.19C6.29937 18.776 5.42932 18.0855 4.61925 18.5396C4.24512 18.7493 4.11736 19.1414 4.01511 19.5284C3.8463 20.1678 3.73469 20.8325 3.60909 21.4819C3.40469 22.5382 3.23795 23.6034 3.15 24.6762C3.12541 24.9764 2.96145 25.5565 3.15401 25.8151C3.39441 26.138 4.07405 26.0767 4.39561 25.9696C4.88381 25.807 5.28387 25.4591 5.68104 25.1319C6.53617 24.4274 7.44098 23.7832 8.38633 23.2053C8.80335 22.9503 10.9218 22.1218 10.8169 21.6161Z" fill="#F7CE21"/>
<path d="M10.1935 23.4172C10.1633 23.2577 10.0791 23.1354 9.90466 23.092C9.61797 23.0206 9.21792 23.3514 9.00961 23.5011C8.37256 23.9588 7.8389 24.5374 7.27272 25.0754C6.40062 25.9039 5.6072 26.8148 4.90986 27.7952C4.32784 28.6134 3.65232 29.5099 3.76054 30.5666C3.86073 31.5451 4.27055 32.5803 4.63171 33.4894C4.97087 34.343 5.38255 35.1612 5.95366 35.8846C6.37408 36.4171 7.20102 37.4067 7.9646 37.3551C8.83393 37.2963 8.87394 36.1332 8.95202 35.4983C9.09994 34.2947 9.13583 33.0815 9.1596 31.8701C9.20733 29.4391 9.41872 26.9688 9.99107 24.5923C10.0542 24.3303 10.262 23.7783 10.1935 23.4172Z" fill="#F7CE21"/>
<path d="M11.0611 16.1496C10.967 15.5214 10.9765 14.8662 10.9493 14.2315C10.9226 13.6057 10.8992 12.982 10.9195 12.3555C10.9295 12.0436 10.9476 11.7316 10.9743 11.4206C11.0021 11.0981 11.0991 10.7394 11.0612 10.4179C11.0426 10.2601 10.8039 10.139 10.7187 10.3251C10.5859 10.6154 10.5793 10.9625 10.5504 11.2771C10.5218 11.588 10.5036 11.8995 10.4961 12.2115C10.4801 12.8717 10.496 13.5373 10.5546 14.1953C10.5828 14.5117 10.6195 14.828 10.6668 15.1422C10.7173 15.4776 10.7945 15.8065 10.8291 16.1444C10.8955 16.7936 10.9543 17.4431 11.0772 18.0851C11.1055 18.233 11.358 18.2015 11.3429 18.0491C11.2795 17.4116 11.156 16.7825 11.0611 16.1496Z" fill="#F7DB63"/>
<path d="M10.5806 18.3655C10.4813 18.1423 10.3821 17.9191 10.283 17.696C10.0793 17.2377 9.90391 16.7653 9.70548 16.3042C9.52238 15.8786 9.34185 15.4517 9.14949 15.0302C9.05557 14.8243 8.95343 14.6221 8.84665 14.4227C8.74533 14.2335 8.64441 13.9818 8.45072 13.8734C8.3245 13.8028 8.14447 13.8904 8.15157 14.0451C8.16134 14.2609 8.31348 14.4505 8.41522 14.6357C8.52415 14.8339 8.62537 15.036 8.72649 15.2383C8.93264 15.6508 9.12408 16.0701 9.31767 16.4886C9.51703 16.9194 9.74014 17.3405 9.93508 17.7727C10.0355 17.9953 10.1349 18.2183 10.2347 18.4411C10.3303 18.6543 10.4045 18.9219 10.5628 19.0949C10.6458 19.1858 10.8325 19.1194 10.8193 18.9887C10.7974 18.7706 10.669 18.5645 10.5806 18.3655Z" fill="#F7DB63"/>
<path d="M16.1443 6.53772C15.9415 7.23197 15.7975 7.94822 15.6375 8.65337C15.4797 9.34895 15.327 10.0457 15.1795 10.7435C14.882 12.1514 14.6223 13.5674 14.3642 14.983C14.2905 15.3874 14.2173 15.7918 14.1485 16.197C14.0816 16.5909 13.9888 16.9928 13.9642 17.3918C13.952 17.59 14.2533 17.6231 14.3048 17.4379C14.4012 17.0917 14.4423 16.7244 14.507 16.3708C14.57 16.0261 14.6317 15.6811 14.6956 15.3366C14.8257 14.6357 14.9612 13.9361 15.1076 13.2383C15.4027 11.8314 15.7118 10.4269 16.0395 9.02719C16.2238 8.23995 16.4426 7.45652 16.6034 6.66424C16.6641 6.36634 16.2311 6.24074 16.1443 6.53772Z" fill="#F7DB63"/>
<path d="M19.2956 8.99976C19.0918 9.24849 18.9327 9.53345 18.7649 9.80707C18.6017 10.0734 18.4405 10.341 18.2813 10.6098C17.9571 11.1577 17.6425 11.7107 17.3401 12.2708C16.7348 13.3916 16.1657 14.5314 15.6348 15.6892C15.3386 16.335 15.0609 16.9855 14.8212 17.6545C14.7679 17.8032 15.005 17.9031 15.0768 17.7623C15.6436 16.6512 16.1677 15.5194 16.7436 14.4127C17.3204 13.3044 17.9336 12.2155 18.5698 11.1403C18.7525 10.8316 18.9378 10.5246 19.126 10.2191C19.3125 9.91651 19.5301 9.62015 19.684 9.29952C19.7965 9.06519 19.486 8.76728 19.2956 8.99976Z" fill="#F7DB63"/>
<path d="M20.7326 11.4159C20.4778 11.5304 20.3056 11.7446 20.1153 11.9464C19.9312 12.1417 19.7482 12.3378 19.5647 12.5336C19.1893 12.934 18.8141 13.3345 18.4416 13.7375C18.0773 14.1318 17.714 14.5273 17.3559 14.9271C17.2306 15.067 17.0825 15.1966 17.1602 15.3963C17.2149 15.5371 17.353 15.6052 17.4751 15.4897C17.5274 15.4401 17.5257 15.3741 17.4972 15.3215C17.4992 15.3196 17.5001 15.3183 17.5023 15.3163C17.5361 15.2863 17.5688 15.2558 17.6011 15.2241C17.6794 15.1472 17.7563 15.069 17.8339 14.9915C17.9891 14.8365 18.1452 14.6822 18.2992 14.526C18.6161 14.2051 18.9323 13.8833 19.2455 13.5589C19.5503 13.2432 19.8551 12.9274 20.16 12.6117C20.3125 12.4538 20.465 12.2961 20.6162 12.137C20.6917 12.0577 20.7689 11.9785 20.8387 11.8942C20.913 11.8043 20.9437 11.7176 20.9856 11.6105C21.0465 11.4542 20.8529 11.3618 20.7326 11.4159Z" fill="#F7DB63"/>
<path d="M21.8522 25.601C21.6508 25.3839 21.2953 25.2643 21.0327 25.1356C20.7664 25.0048 20.498 24.8781 20.228 24.7552C19.6723 24.5022 19.109 24.2655 18.5391 24.0463C17.3951 23.6061 16.2242 23.1872 15.0251 22.925C14.8449 22.8856 14.7726 23.1448 14.9489 23.2015C16.1017 23.5719 17.2546 23.9253 18.3727 24.3942C18.9238 24.6254 19.4682 24.8738 20.0049 25.1369C20.2707 25.2672 20.5346 25.4016 20.7965 25.5396C20.9377 25.614 21.0774 25.6905 21.218 25.7661C21.3532 25.8388 21.4921 25.9316 21.6441 25.9586C21.8504 25.9951 22.005 25.7657 21.8522 25.601Z" fill="#F7DB63"/>
<path d="M21.5209 19.1752C21.2671 19.315 21.0409 19.5157 20.8001 19.6779C20.5747 19.8299 20.3444 19.9742 20.1088 20.1099C19.6101 20.3973 19.094 20.6568 18.5663 20.8865C17.5058 21.3482 16.3983 21.697 15.3169 22.1052C15.1906 22.1529 15.2379 22.3418 15.3734 22.3103C16.5282 22.0423 17.6594 21.7082 18.7645 21.2754C19.3104 21.0615 19.8489 20.8274 20.3641 20.5467C20.6209 20.407 20.874 20.2589 21.118 20.0978C21.3564 19.9405 21.6272 19.7749 21.8192 19.5619C22.0043 19.3566 21.772 19.037 21.5209 19.1752Z" fill="#F7DB63"/>
<path d="M21.7063 22.0485C21.5374 21.9724 21.3602 21.9907 21.1773 21.9923C21.0073 21.9938 20.8375 21.9988 20.6677 22.0023C20.3158 22.0095 19.9638 22.0166 19.6119 22.0238C18.8959 22.0384 18.1783 22.0397 17.4642 22.0976C17.2332 22.1164 17.2282 22.4497 17.4642 22.4606C18.1795 22.4936 18.8963 22.4696 19.6119 22.459C19.9638 22.4538 20.3158 22.4486 20.6677 22.4434C20.8375 22.4409 21.0075 22.44 21.1773 22.4355C21.358 22.4307 21.5418 22.4454 21.7063 22.3639C21.8223 22.3065 21.829 22.1038 21.7063 22.0485Z" fill="#F7DB63"/>
<path d="M14.4306 36.1547C14.1596 34.9034 13.9147 33.6587 13.7805 32.3837C13.7174 31.7836 13.6478 31.1781 13.4445 30.6063C13.2656 30.1034 13.0242 29.6274 12.8041 29.1421C12.6791 28.8666 12.5653 28.5859 12.4852 28.2936C12.406 28.0043 12.378 27.7038 12.3342 27.4081C12.3144 27.2744 12.1115 27.2911 12.08 27.4081C11.9444 27.9128 12.1212 28.4537 12.3117 28.9241C12.5171 29.4314 12.7853 29.9115 12.9836 30.4217C13.2066 30.9953 13.2616 31.6026 13.316 32.2102C13.3728 32.8452 13.4391 33.4785 13.5372 34.1086C13.6505 34.8364 13.7811 35.5692 13.9737 36.2806C14.0537 36.5766 14.495 36.4516 14.4306 36.1547Z" fill="#F7DB63"/>
<path d="M17.684 33.7619C16.8741 32.73 16.1729 31.6017 15.4714 30.4945C14.7468 29.3508 14.0262 28.2083 13.2572 27.0938C13.1678 26.9643 12.9636 27.0784 13.0436 27.2187C13.7255 28.4149 14.4555 29.5788 15.184 30.7471C15.8853 31.8719 16.4999 33.0749 17.3407 34.1053C17.5397 34.3491 17.8737 34.0036 17.684 33.7619Z" fill="#F7DB63"/>
<path d="M8.19768 25.0241C8.00368 25.2256 7.89402 25.5314 7.76092 25.7759C7.61814 26.0382 7.47259 26.2991 7.32446 26.5584C7.03366 27.0674 6.73555 27.572 6.41368 28.0619C5.76284 29.0526 5.06767 30.0092 4.38854 30.9799C4.22344 31.2159 4.61258 31.5218 4.79157 31.2909C5.52079 30.3503 6.1671 29.3351 6.77062 28.3104C7.07377 27.7959 7.37835 27.2817 7.67101 26.761C7.81739 26.5006 7.96109 26.2386 8.10223 25.9754C8.23163 25.7338 8.42975 25.4603 8.4816 25.1893C8.51184 25.0317 8.32318 24.8936 8.19768 25.0241Z" fill="#F7DB63"/>
<path d="M8.67017 26.1395C8.24255 27.3277 7.96265 28.5601 7.63101 29.7778C7.46539 30.3861 7.3044 30.9956 7.14887 31.6066C6.99385 32.2153 6.82576 32.8285 6.70736 33.4456C6.64894 33.7501 7.09898 33.8831 7.17777 33.5753C7.33382 32.9654 7.45007 32.3419 7.58534 31.7269C7.72091 31.1105 7.85916 30.4948 8.00081 29.8797C8.2841 28.6495 8.65247 27.4406 8.90192 26.2034C8.93278 26.051 8.72253 25.9938 8.67017 26.1395Z" fill="#F7DB63"/>
<path d="M8.99215 21.1832C8.71832 20.9952 8.40262 20.8757 8.09515 20.7532C7.76886 20.6232 7.4366 20.5093 7.10413 20.3963C6.44938 20.1736 5.78281 20.0017 5.09648 19.9097C4.82162 19.8729 4.75352 20.3554 5.03043 20.3979C5.69104 20.4993 6.35145 20.6101 6.99828 20.7805C7.31572 20.8641 7.62617 20.9708 7.93323 21.0866C8.24924 21.2059 8.55476 21.357 8.8791 21.4516C9.04564 21.5 9.12474 21.2742 8.99215 21.1832Z" fill="#F7DB63"/>
<path d="M8.29988 21.6091C7.63165 21.714 6.97578 21.8672 6.30241 21.9464C5.96933 21.9856 5.63583 22.0208 5.30151 22.0475C5.13435 22.0609 4.96689 22.0738 4.79932 22.0821C4.7592 22.084 4.71373 22.0801 4.67516 22.0834C4.6659 22.0822 4.65778 22.0769 4.64924 22.0733C4.64872 22.0724 4.64862 22.0721 4.64801 22.0711C4.59873 21.9699 4.44124 21.9299 4.34908 21.9927C4.20753 22.089 4.16402 22.2504 4.24353 22.4064C4.31976 22.5559 4.48558 22.6198 4.6443 22.6336C4.83481 22.6504 5.04034 22.6078 5.22982 22.5865C5.44389 22.5625 5.65753 22.5352 5.87088 22.5058C6.28626 22.4485 6.69824 22.3737 7.10991 22.2939C7.54278 22.2099 7.98685 22.1329 8.40758 21.9993C8.66084 21.9188 8.55272 21.5694 8.29988 21.6091Z" fill="#F7DB63"/>
</svg>
