<svg width="38" height="51" viewBox="0 0 38 51" fill="none" xmlns="http://www.w3.org/2000/svg">
<path d="M37.0122 24.0515C37.0122 23.1323 36.2637 22.3843 35.3435 22.3843H2.21166C1.29196 22.3843 0.542969 23.1323 0.542969 24.0515V28.1889C0.542969 28.1924 0.544989 28.1954 0.544989 28.199C0.544989 28.2025 0.543474 28.205 0.543474 28.2086C0.806605 35.0136 4.76166 41.0096 10.8839 43.946V48.4778C10.8839 49.6333 11.8238 50.5737 12.9793 50.5737H24.5809C25.7364 50.5737 26.6763 49.6333 26.6763 48.4778V43.9429C32.8041 40.9934 36.7571 34.9995 37.0117 28.2081C37.0117 28.205 37.0101 28.202 37.0101 28.199C37.0101 28.1954 37.0122 28.1924 37.0122 28.1894V24.0515ZM25.6667 48.4773C25.6667 49.0763 25.1798 49.5631 24.5814 49.5631H12.9798C12.3808 49.5631 11.8945 49.0763 11.8945 48.4773V44.1389H25.6672L25.6667 48.4773ZM26.0475 43.1288H11.5076C5.7763 40.4631 2.02277 34.9737 1.59145 28.6939H7.48842C7.76772 28.6939 7.99347 28.4677 7.99347 28.1889C7.99347 27.9101 7.76772 27.6838 7.48842 27.6838H1.55357V24.0515C1.55357 23.6894 1.84903 23.3944 2.21216 23.3944H35.3445C35.7076 23.3944 36.0031 23.6889 36.0031 24.0515V27.6838H18.0859C17.8066 27.6838 17.5808 27.9101 17.5808 28.1889C17.5808 28.4677 17.8066 28.6939 18.0859 28.6939H35.9647C35.5415 34.9621 31.7869 40.451 26.0475 43.1288ZM9.77832 16.8636C11.6041 18.2449 13.9627 19.005 16.4238 19.005H16.4561L18.2601 19C20.497 18.9939 22.5819 18.3904 24.2894 17.254C24.8096 16.9081 25.296 16.5207 25.7334 16.1035C27.044 14.8591 28.6894 14.1737 30.3667 14.1737H34.3925C34.6718 14.1737 34.8975 13.9475 34.8975 13.6687C34.8975 13.3899 34.6718 13.1636 34.3925 13.1636H30.3667C28.4293 13.1636 26.5369 13.9475 25.0369 15.3717C24.6415 15.7495 24.2016 16.0995 23.7298 16.4131C22.1869 17.4394 20.2945 17.9843 18.2566 17.9899L16.4526 17.9949C16.4425 17.9949 16.4329 17.9949 16.4228 17.9949C14.1808 17.9949 12.0379 17.3076 10.3869 16.0586C8.31923 14.4934 7.13388 12.2818 7.13388 9.98989V9.88383C7.13388 9.39949 7.52782 9.00504 8.01267 9.00504H34.392C34.6713 9.00504 34.897 8.77878 34.897 8.49999C34.897 8.22121 34.6713 7.99494 34.392 7.99494H26.4303C26.2738 3.88131 22.2915 0.57373 17.4066 0.57373C12.5213 0.57373 8.53893 3.88131 8.38236 7.99444H8.01317C6.97176 7.99444 6.12428 8.84191 6.12428 9.88333V9.98939C6.12428 12.6005 7.4561 15.1061 9.77832 16.8636ZM17.4066 1.58383C21.7324 1.58383 25.2601 4.43838 25.4197 7.99444H9.39297C9.55257 4.43838 13.0808 1.58383 17.4066 1.58383ZM16.3081 3.65908C16.3081 3.97727 16.0455 4.23989 15.7273 4.23989C15.4091 4.23989 15.1516 3.97727 15.1516 3.65908C15.1516 3.3409 15.4091 3.08333 15.7273 3.08333C16.0455 3.08333 16.3081 3.3409 16.3081 3.65908ZM20.0202 4.58838C20.0202 4.90656 19.7627 5.16413 19.4445 5.16413C19.1213 5.16413 18.8637 4.90656 18.8637 4.58838C18.8637 4.2702 19.1213 4.00757 19.4445 4.00757C19.7627 4.00757 20.0202 4.2702 20.0202 4.58838ZM13.5202 5.57828C13.5202 5.89646 13.2627 6.15908 12.9394 6.15908C12.6213 6.15908 12.3637 5.89646 12.3637 5.57828C12.3637 5.26009 12.6213 5.00252 12.9394 5.00252C13.2627 5.00252 13.5202 5.26009 13.5202 5.57828ZM17.5101 6.04797C17.5101 6.36616 17.2475 6.62373 16.9293 6.62373C16.6112 6.62373 16.3536 6.36616 16.3536 6.04797C16.3536 5.72979 16.6112 5.46716 16.9293 5.46716C17.2475 5.46716 17.5101 5.72979 17.5101 6.04797ZM22.6869 5.73989C22.6869 6.05807 22.4293 6.31565 22.1112 6.31565C21.793 6.31565 21.5303 6.05807 21.5303 5.73989C21.5303 5.41666 21.793 5.15908 22.1112 5.15908C22.4293 5.15908 22.6869 5.41666 22.6869 5.73989Z" fill="#282107"/>
</svg>
