<svg width="140" height="139" viewBox="0 0 140 139" fill="none" xmlns="http://www.w3.org/2000/svg">
<path d="M137.414 53.0467C134.096 39.0225 126.525 25.9562 115.518 16.5877C104.681 7.3642 91.0243 1.70757 76.8837 0.305599C54.6111 -1.9024 32.1795 7.98084 18.0918 25.2462C14.0023 30.2579 10.731 35.705 7.71725 41.3954C7.22117 42.3323 6.72445 43.2701 6.30017 44.2415C3.19869 51.343 1.60616 58.7961 0.547219 66.4403C-0.579973 74.578 0.0357523 82.9496 2.35159 90.8323C6.51378 105 15.8008 117.472 27.8099 125.979C51.6417 142.86 84.9188 143.438 108.91 126.641C120.129 118.786 129.078 107.826 134.323 95.1558C139.818 81.8803 140.715 66.9946 137.414 53.0467ZM135.061 84.153C132.077 97.097 124.994 108.894 115.359 117.983C105.661 127.131 93.4314 133.372 80.2581 135.527C66.4514 137.786 51.8692 135.614 39.2517 129.598C26.6895 123.607 16.1267 113.498 9.6079 101.195C-1.59134 80.0582 2.54425 56.1195 14.0251 35.9514C24.7078 17.1851 44.7582 3.97878 66.4426 2.74256C94.4037 1.14853 121.179 17.5943 131.658 43.6787C136.779 56.425 138.154 70.7343 135.061 84.153Z" fill="#FF8B08"/>
<path d="M135.638 53.2812C132.429 39.6813 125.108 27.0104 114.464 17.9255C106.528 11.1523 97.0286 6.3643 86.9465 3.84784C81.8282 2.51796 76.5512 1.8579 71.2692 1.84106C71.1044 1.84046 70.9398 1.84107 70.7749 1.84196C58.8804 1.89396 46.9893 5.20314 36.875 11.4986C32.841 14.0094 28.9471 16.9924 25.6361 20.4736C23.7301 22.309 21.9304 24.2608 20.2534 26.3217C16.2989 31.1817 13.1353 36.464 10.2212 41.9821C9.74136 42.8907 9.26096 43.8001 8.85085 44.7423C5.8519 51.6287 4.31169 58.8563 3.28791 66.2692C2.19795 74.1607 2.79331 82.2792 5.03263 89.9231C5.78842 92.5037 6.7194 95.026 7.80966 97.4757C10.0224 104.13 13.7021 110.233 18.8529 115.12C20.3999 116.588 22.0279 117.957 23.7159 119.247C25.6027 120.946 27.5841 122.538 29.6506 124.006C52.6958 140.377 84.8747 140.937 108.074 124.649C118.923 117.031 127.576 106.402 132.648 94.116C137.962 81.2424 138.829 66.8072 135.638 53.2812Z" fill="#FED9AF"/>
<path d="M65.3995 71.9243C65.3247 71.8962 65.2476 71.8859 65.1699 71.888C64.9729 71.8933 64.771 71.9796 64.5872 72.0646C53.1776 77.3511 41.8387 82.8703 30.4905 88.3222C27.8062 89.6119 25.2572 91.2432 22.5083 92.3609C20.3331 93.2452 18.5943 95.0514 18.0426 97.4133C17.5888 99.3566 18.1933 101.397 19.0611 103.194C20.3924 105.951 22.5996 108.017 24.6835 110.213C26.9775 112.63 29.6544 114.636 32.1856 116.791C34.1324 118.448 36.1073 120.072 38.1084 121.663C39.8141 123.018 41.8537 125.236 43.9441 125.934C47.4389 127.102 50.0478 121.1 51.1815 118.671C53.2838 114.166 54.044 109.329 55.4782 104.627C56.9702 99.7341 58.5418 94.8655 60.1925 90.0244C62.0717 84.5137 64.4437 78.9738 65.7455 73.2648C65.8584 72.7711 65.8737 72.1016 65.3995 71.9243Z" fill="#FF8B08"/>
<path d="M86.3296 9.97838C83.0429 7.42646 77.9284 7.13365 73.9465 6.85946C69.1156 6.52706 64.2213 6.90172 59.4918 7.94086C56.0319 8.70109 51.1568 9.72692 51.5453 14.2584C51.753 16.6812 52.7375 19.1761 53.4455 21.489C54.2527 24.126 55.1195 26.7441 55.9905 29.3608C59.1995 38.9379 62.2437 48.57 65.5278 58.1223C66.3483 60.5088 67.1671 62.8982 68.0404 65.2657C68.4576 66.3971 68.4715 67.1434 69.2391 66.1802C69.6507 65.664 69.9119 64.6435 70.2706 64.0272C72.5985 60.0298 73.9639 55.2936 75.6185 50.9766C77.5815 45.8544 79.5109 40.7187 81.3924 35.5658C83.3436 30.2327 85.2544 24.8842 87.1238 19.5219C88.3245 16.0765 89.7245 12.6142 86.3296 9.97838Z" fill="#FF8B08"/>
<path d="M65.5709 66.1325C61.7278 55.7677 57.8847 45.4028 54.0417 35.038C51.7122 28.7552 49.1039 22.4672 47.2587 16.0566C47.0888 15.4665 46.9384 14.8292 46.4908 14.409C45.9259 13.879 45.0238 13.8583 44.3073 14.1529C41.6071 15.2632 38.8935 17.5637 36.7328 19.5132C34.25 21.7537 32.0007 24.2332 29.6263 26.5848C27.0248 29.1618 24.2968 31.7084 22.2221 34.7496C20.4954 37.2808 20.8136 39.03 23.2733 40.8308C23.5528 41.0356 23.8362 41.2353 24.1163 41.4392C24.3881 41.6995 24.6915 41.9175 25.0183 42.0904C37.4948 51.1324 50.4636 59.5632 63.5441 67.6902C64.5126 68.2921 65.9961 67.2789 65.5709 66.1325Z" fill="#FF8B08"/>
<path d="M118.597 35.1498C116.352 31.1111 112.418 27.775 109.177 24.5598C107.314 22.7123 105.42 20.896 103.497 19.112C101.857 17.5916 99.9434 15.1632 97.8589 14.2853C94.3742 12.8178 91.2358 18.7554 89.8861 21.1522C87.733 24.9758 86.571 29.1341 85.0769 33.226C83.848 36.591 82.3911 39.793 81.1011 43.1294C79.6554 46.8684 78.431 50.697 76.7528 54.3401C75.7044 56.6152 74.5341 58.8308 73.4533 61.09C72.5309 63.0176 71.2784 65.2329 71.1094 67.3904C71.3209 67.6294 71.6143 67.7252 71.9332 67.7402C72.2762 67.7562 72.6485 67.6791 72.9797 67.5866C78.2599 66.1125 83.0644 63.339 87.9257 60.861C92.5872 58.4846 97.1488 55.912 101.594 53.1523C106.039 50.3924 110.368 47.4458 114.566 44.3218C116.019 43.2407 117.936 42.1818 118.977 40.6687C120.185 38.9131 119.557 36.8747 118.597 35.1498Z" fill="#FF8B08"/>
<path d="M63.372 69.4213C61.3037 68.5559 59.4157 67.5206 57.3939 66.5919C55.0925 65.5347 52.7873 64.4864 50.4783 63.4467C45.8631 61.3693 41.2317 59.328 36.5832 57.3265C31.7858 55.2609 26.9739 53.2358 22.1481 51.2512C19.0475 49.9762 15.9363 48.5022 13.4621 51.8394C11.0667 55.0703 10.6794 60.1771 10.336 64.152C9.91943 68.9745 10.144 73.8754 10.9757 78.6258C11.5841 82.1011 12.4004 86.9969 16.5248 86.7058C18.7299 86.5501 21.0191 85.62 23.1364 84.962C25.5503 84.2118 27.9489 83.4017 30.3457 82.5871C36.5557 80.4766 42.7646 78.3626 48.9735 76.2482C52.0779 75.1911 55.1826 74.1342 58.2868 73.0765C60.2599 72.404 62.1868 72.1422 63.8589 70.7582C63.9833 70.6551 64.1101 70.5411 64.1615 70.3877C64.3086 69.9519 63.7968 69.5992 63.372 69.4213Z" fill="#FF8B08"/>
<path d="M86.4851 126.555C86.3681 125.48 86.059 124.399 85.8301 123.509C85.1422 120.834 84.3572 118.186 83.534 115.551C81.9178 110.376 80.1459 105.25 78.6385 100.042C76.0401 91.0658 72.6672 82.3414 69.2841 73.6388C68.7151 72.1748 67.1435 73.1687 66.6297 73.9934C65.4499 75.887 65.3743 78.3287 64.7872 80.4094C63.9859 83.2499 63.54 86.2329 62.9538 89.1302C61.7542 95.0605 60.5547 100.991 59.3554 106.921C58.31 112.089 57.2647 117.257 56.2193 122.425C55.553 125.719 54.8327 129.069 58.9914 129.902C63.8837 130.882 69.0091 131.216 73.9856 131.418C76.481 131.519 79.0214 131.628 81.5175 131.49C82.9721 131.41 84.6166 131.137 85.6516 130.002C86.4937 129.078 86.6228 127.821 86.4851 126.555Z" fill="#FF8B08"/>
<path d="M119.788 89.5194C113.248 86.162 106.194 83.7646 99.2339 81.4255C90.989 78.6546 82.7438 75.8834 74.4989 73.1126C73.8498 72.8945 71.5998 71.6852 71.0095 72.4463C70.7867 72.7338 70.7926 73.1339 70.8541 73.4914C71.2394 75.7354 72.9486 77.7703 73.9969 79.7401C75.5239 82.6097 77.0136 85.4987 78.4647 88.4066C81.276 94.0411 83.9413 99.7474 86.4495 105.521C87.6813 108.356 88.8726 111.208 90.0279 114.075C91.0629 116.643 91.7569 119.81 93.3001 122.119C95.6635 125.655 101.349 121.805 103.91 120.316C111.894 115.673 118.235 108.399 121.715 99.9025C122.459 98.0836 123.428 95.9321 123.394 93.9312C123.355 91.6349 121.651 90.4761 119.788 89.5194Z" fill="#FF8B08"/>
<path d="M129.235 57.4774C128.268 54.0695 126.949 49.2656 122.45 49.9269C120.044 50.2805 117.613 51.4136 115.347 52.2601C112.764 53.2251 110.202 54.2483 107.643 55.2759C101.433 57.7696 95.2228 60.2666 89.0133 62.7641C85.8607 64.032 82.7081 65.3001 79.5555 66.5679C78.0301 67.1816 73.3083 68.0222 72.7761 69.8192C72.5711 70.5115 72.9233 71.3258 73.5677 71.6505C75.1467 72.4459 77.2586 72.9747 78.9605 73.5228C81.492 74.3377 84.0233 75.1523 86.5592 75.9542C92.0206 77.6809 97.4952 79.3662 102.983 81.006C108.425 82.632 113.879 84.2159 119.344 85.7582C122.856 86.7492 126.396 87.9373 128.822 84.3894C131.171 80.9546 131.155 75.8316 131.188 71.8405C131.228 66.9984 130.558 62.1357 129.235 57.4774Z" fill="#FF8B08"/>
<path d="M66.8358 85.5721C66.787 85.2837 66.3279 85.2985 66.2676 85.5721C66.0445 86.587 66.1069 87.6761 66.0658 88.7111C66.0227 89.8067 65.9737 90.9023 65.9205 91.9973C65.812 94.2327 65.6297 96.4528 65.386 98.6777C64.9038 103.079 64.5412 107.493 64.0389 111.893C63.7559 114.372 63.4359 116.846 63.1094 119.32C62.9992 120.155 64.473 120.363 64.5915 119.521C65.2105 115.114 65.7042 110.686 66.075 106.252C66.2573 104.072 66.452 101.883 66.5114 99.6958C66.572 97.4686 66.6074 95.2426 66.7058 93.0169C66.7611 91.7709 66.808 90.5247 66.8452 89.2778C66.8819 88.0649 67.0388 86.772 66.8358 85.5721Z" fill="#FED9AF"/>
<path d="M74.8072 119.681C73.7807 115.162 72.7505 110.612 72.5271 105.967C72.4163 103.662 72.4813 101.351 72.3321 99.0478C72.1853 96.7792 71.7994 94.6008 71.2041 92.4099C70.5239 89.9074 69.7805 87.3664 68.8129 84.9583C68.7035 84.6868 68.2828 84.7843 68.3625 85.0824C68.9496 87.2828 69.7501 89.4192 70.2781 91.6387C70.8182 93.9088 71.1683 96.2702 71.2675 98.6023C71.3659 100.907 71.2812 103.215 71.34 105.521C71.3982 107.795 71.6419 110.056 72.0035 112.301C72.4213 114.896 72.9839 117.463 73.5462 120.029C73.7261 120.849 74.9939 120.503 74.8072 119.681Z" fill="#FED9AF"/>
<path d="M67.7146 51.1574C67.2962 48.9364 66.671 46.7447 66.2042 44.5311C65.7288 42.2767 65.2519 40.0179 64.8921 37.742C64.5363 35.4935 64.3006 33.2311 63.8905 30.9909C63.4765 28.7277 63.0434 26.468 62.62 24.2065L61.9327 20.5368C61.6933 19.2581 61.543 17.9004 61.1362 16.6633C60.9571 16.1188 60.0597 16.1779 60.0917 16.8045C60.1475 17.8998 60.4214 19.0031 60.6211 20.0797C60.8344 21.2294 61.0478 22.3791 61.2611 23.5287C61.6807 25.7908 62.1005 28.0531 62.5201 30.3152C62.9337 32.5456 63.5061 34.7226 64.0048 36.9324C64.5112 39.177 64.9884 41.4273 65.4827 43.6746C66.0379 46.1993 66.5059 48.8097 67.2924 51.2739C67.3787 51.5454 67.7666 51.4328 67.7146 51.1574Z" fill="#FED9AF"/>
<path d="M58.12 57.6716C57.5344 56.75 56.757 55.9529 56.1162 55.0677C55.4499 54.1476 54.8416 53.1921 54.2961 52.1958C53.2032 50.1984 52.2926 48.1293 51.4331 46.0227C49.5472 41.4001 47.6183 36.7939 45.6544 32.2036C44.4873 29.4758 43.3306 26.7407 42.0749 24.0526C41.8039 23.4726 40.802 23.8854 41.0307 24.4928C42.9096 29.4788 45.044 34.3725 47.1087 39.2834C48.9492 43.6607 50.7503 48.0764 53.1911 52.1638C53.8385 53.2479 54.5358 54.3133 55.2836 55.3309C55.9974 56.3021 56.7461 57.3504 57.7365 58.0554C57.9679 58.2197 58.2648 57.8994 58.12 57.6716Z" fill="#FED9AF"/>
<path d="M54.5195 57.183C53.1219 55.7276 51.5642 54.4077 50.0922 53.027C48.5883 51.6165 47.1092 50.1796 45.6511 48.7215C44.219 47.2891 42.7663 45.8656 41.4414 44.3324C40.0902 42.7691 38.7045 41.2348 37.3058 39.7143C35.7446 38.0172 34.1889 36.2621 32.4448 34.7505C32.027 34.3886 31.242 34.8776 31.6211 35.3861C32.8413 37.0235 34.2657 38.4902 35.6514 39.9865C37.0511 41.4978 38.5012 42.978 39.9992 44.3924C43.0251 47.2495 45.9085 50.2526 48.9435 53.1021C50.6134 54.6698 52.2997 56.3066 54.1625 57.6457C54.4415 57.846 54.744 57.4167 54.5195 57.183Z" fill="#FED9AF"/>
<path d="M82.9971 15.2314C82.693 15.1035 82.2229 15.1957 82.0773 15.5328C81.583 16.6774 81.313 17.9331 80.9676 19.1304C80.6372 20.2753 80.3028 21.4184 79.9955 22.5698C79.362 24.9439 78.6759 27.304 77.9807 29.6607C76.5802 34.4073 75.1537 39.1447 73.5452 43.8258C73.0985 45.1258 72.7211 46.4465 72.2871 47.7507C71.841 49.0909 71.2852 50.3933 70.8343 51.7315C70.7525 51.9747 71.1475 52.1484 71.2545 51.9088C71.7482 50.8028 72.1657 49.6594 72.5997 48.5293C73.0285 47.4127 73.5351 46.3275 73.968 45.213C74.857 42.924 75.6049 40.5763 76.4168 38.2592C78.056 33.5818 79.5165 28.849 81.021 24.1275C81.4397 22.8133 81.8643 21.5035 82.2587 20.1819C82.6573 18.8467 83.1994 17.4764 83.4231 16.1007C83.4831 15.7337 83.3587 15.3839 82.9971 15.2314Z" fill="#FED9AF"/>
<path d="M72.4415 17.0127C72.1428 18.9937 72.0116 21.0091 71.8057 23.0017C71.6015 24.9745 71.4027 26.9479 71.2012 28.921C70.7943 32.9021 70.3939 36.884 69.9936 40.866C69.8795 42.0012 69.8013 43.1393 69.7147 44.2768C69.6281 45.4129 69.4429 46.5492 69.3977 47.6867C69.3862 47.9745 69.8462 48.0437 69.9056 47.7556C70.1053 46.7885 70.178 45.7949 70.339 44.8208C70.506 43.8097 70.6805 42.7995 70.8333 41.7861C71.1243 39.8546 71.3672 37.9131 71.6134 35.9752C72.1186 31.9953 72.6147 28.0136 73.0581 24.0261C73.3105 21.7572 73.6538 19.4733 73.7826 17.1938C73.8248 16.4391 72.5571 16.2454 72.4415 17.0127Z" fill="#FED9AF"/>
<path d="M56.3679 79.276C55.3775 79.8116 54.4655 80.5234 53.5404 81.1634C52.6073 81.8087 51.6736 82.4537 50.7397 83.0975C48.8715 84.3857 47.0035 85.6742 45.1332 86.9598C41.3944 89.5291 37.6019 92.0196 33.8368 94.5502C31.7281 95.9676 29.4911 97.2871 27.4932 98.8572C26.8591 99.3553 27.6702 100.335 28.3379 99.9519C30.2921 98.8291 32.1178 97.4088 33.9742 96.1315C35.8453 94.8442 37.7106 93.5492 39.5693 92.2439C43.286 89.634 47.0209 87.0514 50.7447 84.4519C51.7995 83.7153 52.8537 82.9781 53.9073 82.2397C54.9261 81.5256 56.0133 80.8516 56.947 80.0267C57.3654 79.6568 56.8315 79.0254 56.3679 79.276Z" fill="#FED9AF"/>
<path d="M58.7913 80.261C57.9383 81.1349 57.2955 82.2406 56.5973 83.239C55.8651 84.2858 55.138 85.3359 54.4132 86.3877C52.9619 88.4938 51.5038 90.5913 50.0155 92.6716C47.0219 96.8566 44.1396 101.137 41.3005 105.428C39.7068 107.836 38.0493 110.221 36.5498 112.689C36.0493 113.513 37.2952 114.214 37.828 113.436C39.2704 111.332 40.6023 109.145 41.9931 107.006C43.3847 104.865 44.7657 102.718 46.1562 100.577C48.9152 96.3285 51.6291 92.0452 54.4806 87.8591C55.2839 86.6796 56.0917 85.5034 56.8951 84.3239C57.7046 83.1355 58.6882 81.9584 59.3049 80.6572C59.4564 80.3372 59.0658 79.9797 58.7913 80.261Z" fill="#FED9AF"/>
<path d="M94.3363 28.4804C93.673 29.4365 93.2236 30.5874 92.6959 31.6241C92.1762 32.6456 91.6523 33.6646 91.1243 34.6819C90.0515 36.7486 88.9615 38.8068 87.8547 40.8559C85.6582 44.922 83.4461 48.9779 81.1486 52.9885C80.5056 54.1109 79.8575 55.2308 79.2042 56.3473C78.5627 57.4441 77.7774 58.5355 77.3109 59.7194C77.1723 60.0707 77.7014 60.3597 77.9413 60.0864C78.6862 59.2378 79.2242 58.1765 79.8125 57.2166C80.4114 56.2395 81.0062 55.26 81.5971 54.2782C82.7979 52.2829 83.9818 50.2779 85.1486 48.2625C87.4824 44.2318 89.7303 40.1548 91.9002 36.0336C92.5201 34.8565 93.1344 33.6761 93.7433 32.4931C94.334 31.3455 95.0622 30.1853 95.472 28.9594C95.7078 28.2547 94.7168 27.9317 94.3363 28.4804Z" fill="#FED9AF"/>
<path d="M107.533 35.0504C105.451 36.0193 103.556 37.5506 101.867 39.0876C100.127 40.6713 98.5374 42.3992 96.978 44.1575C93.6487 47.9117 90.349 51.6726 86.4905 54.902C85.335 55.8691 84.1567 56.808 82.966 57.7314C81.723 58.6955 80.4072 59.5934 79.2165 60.621C78.9243 60.8733 79.3063 61.3691 79.6302 61.157C80.7653 60.413 81.8275 59.5343 82.9042 58.7085C83.9546 57.9027 84.9984 57.0879 86.0296 56.2579C88.1327 54.5649 90.2305 52.8279 92.1561 50.9331C95.4726 47.6694 98.4237 44.0461 101.87 40.9112C102.821 40.0458 103.81 39.215 104.843 38.4486C105.931 37.6417 107.087 36.9656 108.24 36.2606C109.022 35.7823 108.339 34.6749 107.533 35.0504Z" fill="#FED9AF"/>
<path d="M118.919 61.3478C116.692 62.3083 114.458 63.2012 112.129 63.8908C109.799 64.581 107.424 65.0809 105.027 65.4739C100.113 66.2796 95.1639 66.9001 90.2317 67.5888C87.3888 67.9856 84.4705 68.2512 81.6843 68.9568C81.4373 69.0195 81.4884 69.4047 81.7446 69.4015C84.3184 69.3669 86.8992 68.9397 89.4502 68.625C92.019 68.308 94.5874 67.9904 97.1562 67.6727C102.083 67.0635 107.054 66.6507 111.861 65.3516C114.507 64.6365 117.149 63.7378 119.626 62.558C120.451 62.1653 119.73 60.9979 118.919 61.3478Z" fill="#FED9AF"/>
<path d="M115.799 70.4273C114.851 70.3662 113.854 70.5928 112.908 70.6817C111.906 70.7757 110.901 70.8504 109.896 70.9057C107.96 71.012 106.021 71.0398 104.082 71.0115C100.102 70.953 96.1242 70.7908 92.1449 70.7142C89.855 70.6702 87.5593 70.5869 85.2724 70.7402C84.9648 70.7609 84.8449 71.2712 85.1941 71.3188C89.1873 71.8657 93.2747 71.9023 97.2989 72.0707C101.272 72.2367 105.248 72.4586 109.226 72.3153C110.343 72.2752 111.459 72.2108 112.574 72.1224C113.674 72.0353 114.919 72.0462 115.972 71.7046C116.681 71.4748 116.534 70.4746 115.799 70.4273Z" fill="#FED9AF"/>
<path d="M50.5231 66.7989C49.8102 66.1536 48.8748 65.7473 48.0194 65.3266C47.1378 64.8931 46.2525 64.4703 45.3582 64.0641C43.5532 63.2439 41.7364 62.4499 39.908 61.6829C36.2145 60.1332 32.46 58.7203 28.6763 57.4067C26.5505 56.6686 24.4107 55.891 22.2379 55.303C21.4307 55.0846 21.1213 56.2736 21.896 56.5433C23.7518 57.1895 25.6452 57.735 27.5072 58.3658C29.3695 58.9966 31.2226 59.6549 33.066 60.3395C36.7708 61.7157 40.4405 63.1945 44.0649 64.7699C45.1017 65.2208 46.1364 65.6761 47.1729 66.1279C48.1491 66.5531 49.1773 67.1183 50.2363 67.2911C50.5007 67.3346 50.7628 67.0161 50.5231 66.7989Z" fill="#FED9AF"/>
<path d="M46.9695 68.5718C42.9403 67.7227 38.8629 67.1988 34.7742 66.7092C30.6416 66.2146 26.5051 65.7596 22.3524 65.4715C20.0303 65.3105 17.6614 65.0638 15.3325 65.1134C14.5206 65.1308 14.5469 66.2843 15.3325 66.3564C17.3957 66.5461 19.4905 66.5302 21.5603 66.6386C23.5963 66.7453 25.632 66.8723 27.6663 67.0088C31.773 67.2848 35.8672 67.6902 39.9505 68.2075C42.2699 68.5012 44.5822 68.7949 46.9045 69.0513C47.1778 69.0818 47.2372 68.628 46.9695 68.5718Z" fill="#FED9AF"/>
<path d="M50.8265 69.9979C48.732 69.8631 46.5722 70.3087 44.5072 70.6207C42.3858 70.9413 40.274 71.3301 38.173 71.7636C34.0081 72.6225 29.8785 73.6737 25.81 74.9111C23.495 75.6152 21.1194 76.3042 18.8878 77.2459C18.0779 77.5877 18.3708 78.8987 19.2643 78.6109C21.2699 77.9644 23.232 77.1785 25.237 76.5243C27.2766 75.859 29.3321 75.2429 31.4013 74.6765C35.5041 73.5535 39.6681 72.6641 43.8589 71.9417C45.0044 71.7443 46.1514 71.5559 47.3013 71.3854C48.5174 71.2051 49.7418 71.0683 50.924 70.7173C51.3303 70.5971 51.2346 70.0242 50.8265 69.9979Z" fill="#FED9AF"/>
<path d="M105.217 111.718C103.548 109.624 101.731 107.639 100.013 105.584C98.2954 103.529 96.58 101.472 94.8669 99.4139C91.3792 95.2224 88.0213 90.9273 84.573 86.7024C83.6432 85.5634 82.7416 84.4014 81.808 83.265C80.8847 82.1414 79.9283 80.9728 78.7999 80.048C78.4858 79.7907 78.0636 80.1922 78.3478 80.5004C79.2044 81.4284 80.0763 82.3284 80.882 83.3034C81.7099 84.3053 82.5077 85.3321 83.3125 86.3526C85.0173 88.5139 86.7 90.6927 88.4071 92.8525C91.7609 97.0956 94.9703 101.45 98.3628 105.662C100.271 108.031 102.15 110.482 104.247 112.689C104.869 113.344 105.754 112.392 105.217 111.718Z" fill="#FED9AF"/>
<path d="M111.764 99.3873C110.771 98.6206 109.637 98.0054 108.572 97.3418C107.564 96.7131 106.557 96.0811 105.552 95.4458C103.48 94.1357 101.354 92.9217 99.3013 91.5794C95.1645 88.8738 91.1424 86.0028 87.0561 83.2231C85.9212 82.4514 84.7722 81.7015 83.6367 80.9306C82.4835 80.1476 81.3826 79.1915 80.1435 78.551C79.9384 78.4449 79.717 78.7058 79.8908 78.8783C80.7411 79.7219 81.8066 80.3858 82.7692 81.0949C83.7596 81.8244 84.7202 82.5938 85.7112 83.3221C87.7186 84.7976 89.764 86.2194 91.8133 87.6362C93.831 89.0313 95.8639 90.4038 97.8931 91.7824C99.9271 93.1643 101.912 94.61 103.932 96.0102C105.094 96.815 106.28 97.5847 107.46 98.3618C108.628 99.1312 109.79 99.996 111.039 100.628C111.886 101.057 112.481 99.9407 111.764 99.3873Z" fill="#FED9AF"/>
</svg>
