<svg width="55" height="51" viewBox="0 0 55 51" fill="none" xmlns="http://www.w3.org/2000/svg">
<path d="M6.68659 45.1967C8.32314 46.6567 10.503 47.8921 13.1951 47.8921C15.6302 47.8921 18.4851 46.8748 21.7331 44.1063C23.9277 46.6425 25.2658 49.2816 25.4653 50.1496C25.5233 50.4026 25.7485 50.5737 25.9977 50.5737C26.0382 50.5737 26.0797 50.5694 26.1207 50.5601C26.4148 50.4923 26.5984 50.1988 26.5307 49.9047C26.3076 48.9355 24.899 46.0937 22.5563 43.3749C22.6306 43.306 22.7038 43.2421 22.7782 43.1716C24.8591 41.2043 25.6998 38.2772 24.9203 35.7142C24.4186 34.0629 22.6158 30.3514 16.7655 31.549C9.0228 33.132 6.7817 33.2337 2.52964 30.5744C1.77641 30.1038 1.19373 30.3563 0.899108 30.7494C-0.377768 32.4515 1.83107 40.8643 6.68659 45.1967ZM1.74088 31.4102C1.74088 31.4102 1.80538 31.4108 1.95024 31.5015C6.75984 34.5078 9.5694 34.1367 16.9847 32.6193C21.7784 31.6387 23.3592 34.3362 23.8752 36.0318C24.535 38.2013 23.8096 40.6916 22.0277 42.3768C21.9588 42.4418 21.8905 42.5009 21.8222 42.5643C18.841 39.4093 14.5982 36.7025 9.49998 37.7208C9.20372 37.7798 9.01186 38.0679 9.0709 38.3636C9.12993 38.6599 9.41799 38.8512 9.71371 38.7927C14.3079 37.8782 18.2162 40.3806 20.9952 43.2973C17.4154 46.3364 14.0292 47.3963 10.9157 46.4337C5.86067 44.8715 2.73462 38.3614 1.8666 34.3674C1.40581 32.2476 1.68404 31.4824 1.74088 31.4102ZM32.4499 32.4427C32.6937 32.2635 33.0353 32.3181 33.2135 32.5614C33.3911 32.8051 33.3387 33.1473 33.0943 33.325C32.0372 34.0979 31.5201 35.225 31.2719 36.034C30.6138 38.2024 31.3386 40.6916 33.12 42.3746C33.1894 42.4402 33.2583 42.4998 33.3277 42.5637C36.3089 39.4087 40.5517 36.7019 45.6477 37.7208C45.944 37.7798 46.1364 38.0679 46.0768 38.3636C46.0178 38.6593 45.7275 38.8506 45.434 38.7927C40.8398 37.8766 36.9321 40.3789 34.1531 43.2956C37.7328 46.3353 41.1207 47.3958 44.2309 46.4332C49.2848 44.8726 52.4125 38.3631 53.2816 34.369C53.7266 32.3225 53.4839 31.537 53.3768 31.4036C53.3664 31.4151 53.3041 31.4337 53.1991 31.4993C48.8159 34.2334 46.2982 34.2449 39.2956 32.8511C38.9993 32.792 38.8069 32.504 38.8665 32.2083C38.925 31.9125 39.2087 31.7207 39.5093 31.7786C46.2801 33.1271 48.5283 33.1249 52.6197 30.5717C53.3713 30.1022 53.9551 30.3542 54.2491 30.7466C55.5266 32.4493 53.3172 40.8632 48.4606 45.1962C46.8246 46.6556 44.6447 47.8904 41.9537 47.8904C39.5186 47.8904 36.6642 46.8737 33.4152 44.1041C31.2205 46.6414 29.8819 49.281 29.6824 50.149C29.6244 50.4016 29.3987 50.5726 29.15 50.5726C29.1095 50.5726 29.0686 50.5683 29.0265 50.559C28.7324 50.4912 28.5487 50.1977 28.6165 49.9036C28.8401 48.9339 30.2492 46.0921 32.5925 43.3733C32.5176 43.3038 32.4439 43.2393 32.369 43.1683C30.2891 41.2032 29.4479 38.2772 30.2263 35.7142C30.5236 34.7462 31.15 33.3928 32.4499 32.4427ZM26.2606 28.4607C29.76 28.4607 32.6067 25.6085 32.6067 22.1031C32.6067 16.0527 26.8952 10.1083 26.652 9.85855C26.4465 9.64701 26.0737 9.64701 25.8682 9.85855C25.6249 10.1089 19.9134 16.0527 19.9134 22.1031C19.914 25.6085 22.7612 28.4607 26.2606 28.4607ZM26.2606 11.0502C27.5408 12.4992 31.5135 17.3788 31.5135 22.1031C31.5135 25.0061 29.1566 27.3675 26.2606 27.3675C23.3641 27.3675 21.0077 25.0061 21.0077 22.1031C21.0072 17.3788 24.9799 12.4992 26.2606 11.0502ZM38.9392 15.1142C41.675 15.1142 43.9008 12.8846 43.9008 10.1444C43.9008 5.48623 39.5175 0.924243 39.3311 0.732383C39.125 0.520846 38.7533 0.520846 38.5473 0.732383C38.3603 0.924243 33.9782 5.48623 33.9782 10.1444C33.9782 12.8846 36.2034 15.1142 38.9392 15.1142ZM38.9392 1.92836C39.9936 3.14183 42.8075 6.70407 42.8075 10.1444C42.8075 12.2822 41.0721 14.021 38.9392 14.021C36.8069 14.021 35.0714 12.2817 35.0714 10.1444C35.0714 6.70407 37.8848 3.14183 38.9392 1.92836ZM15.616 13.3793C18.0249 13.3793 19.9845 11.4164 19.9845 9.00365C19.9845 4.94181 16.1702 0.971798 16.0079 0.804536C15.8024 0.592998 15.4296 0.592998 15.2241 0.804536C15.0617 0.971798 11.2475 4.94181 11.2475 9.00365C11.2475 11.4164 13.2071 13.3793 15.616 13.3793ZM15.616 2.00325C16.5622 3.10357 18.8913 6.10773 18.8913 9.00365C18.8913 10.814 17.422 12.286 15.616 12.286C13.81 12.286 12.3407 10.8135 12.3407 9.00365C12.3407 6.10773 14.6698 3.10357 15.616 2.00325Z" fill="#282107"/>
</svg>
