<svg width="32" height="51" viewBox="0 0 32 51" fill="none" xmlns="http://www.w3.org/2000/svg">
<path d="M26.4296 33.4318C28.1301 32.0675 29.0588 30.3876 29.0588 28.6524C29.0588 25.3534 25.717 22.4136 20.7039 21.2664C20.8491 20.2955 21.2366 17.5945 21.2366 16.4573C21.2366 14.4352 20.7637 11.7206 19.8587 10.0185C21.0516 9.8497 21.9753 8.83411 21.9753 7.59792V3.02903C21.9753 1.67525 20.8712 0.57373 19.5144 0.57373H12.748C11.3912 0.57373 10.2872 1.67525 10.2872 3.02903V7.59792C10.2872 8.83411 11.2113 9.8497 12.4043 10.0185C11.4983 11.7206 11.0254 14.4347 11.0254 16.4573C11.0254 17.5945 11.4088 20.296 11.5526 21.2664C6.54295 22.4126 3.20322 25.3524 3.20322 28.6524C3.20322 30.3876 4.13187 32.067 5.83189 33.4313C2.67156 35.1806 0.873047 37.657 0.873047 40.2917C0.873047 42.0666 1.68361 43.7787 3.2198 45.2551C3.13287 45.5908 3.08865 45.946 3.08865 46.3129C3.08865 48.6621 5.00424 50.5737 7.35954 50.5737H24.8964C26.0401 50.5737 27.115 50.1305 27.9216 49.3255C28.7286 48.5204 29.1733 47.4506 29.1733 46.3129C29.1733 45.9455 29.1291 45.5908 29.0422 45.2551C30.5784 43.7787 31.3889 42.0666 31.3889 40.2917C31.3884 37.6605 29.5899 35.1841 26.4296 33.4318ZM11.041 7.59792V3.02903C11.041 2.09083 11.8068 1.32751 12.748 1.32751H19.5139C20.4552 1.32751 21.221 2.09083 21.221 3.02903V7.59792C21.221 8.53612 20.4552 9.29945 19.5139 9.29945H19.224C19.22 9.29945 19.2159 9.29643 19.2119 9.29643H13.0516C13.0475 9.29643 13.0435 9.29945 13.0395 9.29945H12.748C11.8068 9.29945 11.041 8.53612 11.041 7.59792ZM28.3603 44.8616C28.2512 44.9616 28.211 45.1164 28.2572 45.2571C28.3648 45.5847 28.4196 45.94 28.4196 46.3139C28.4196 47.2496 28.0537 48.13 27.3894 48.7928C26.7251 49.4556 25.8396 49.8205 24.8969 49.8205H7.35954C5.42033 49.8205 3.84242 48.2476 3.84242 46.3134C3.84242 45.9395 3.8967 45.5842 4.00474 45.2566C4.05097 45.1159 4.01077 44.9611 3.90172 44.8611C2.41377 43.4948 1.62733 41.9148 1.62733 40.2912C1.62733 37.8078 3.47709 35.45 6.70225 33.8233C6.82034 33.764 6.89823 33.6469 6.90828 33.5153C6.91833 33.3836 6.85803 33.256 6.75049 33.1796C4.94947 31.9017 3.957 30.2931 3.957 28.6519C3.957 25.6423 7.2113 22.9403 12.0546 21.9272C12.2505 21.886 12.3802 21.6991 12.35 21.5011C12.3445 21.4639 11.7792 17.7684 11.7792 16.4563C11.7792 14.097 12.4048 11.402 13.2516 10.0522H19.0109C19.8572 11.402 20.4823 14.097 20.4823 16.4563C20.4823 17.7679 19.9114 21.4634 19.9054 21.5006C19.8747 21.6991 20.0044 21.8865 20.2009 21.9272C25.0482 22.9408 28.3045 25.6433 28.3045 28.6519C28.3045 30.2936 27.3125 31.9012 25.511 33.1796C25.4034 33.256 25.3436 33.3836 25.3532 33.5153C25.3632 33.6469 25.4411 33.764 25.5592 33.8233C28.7844 35.453 30.6346 37.8108 30.6346 40.2912C30.6346 41.9154 29.8482 43.4958 28.3603 44.8616ZM17.2315 34.5811C17.0129 34.0726 16.6722 33.5791 16.2034 33.1102C14.3958 31.3052 11.1907 30.3102 9.7666 31.7353C9.08519 32.4178 8.90328 33.5364 9.25454 34.8851C9.56409 36.0711 10.2696 37.2997 11.1425 38.1711C11.7164 38.745 12.3264 39.1229 12.9571 39.3209C12.936 39.4852 12.9224 39.6495 12.9229 39.8143C12.9259 40.7515 13.2772 41.653 13.9415 42.4475C13.531 43.7551 13.5606 44.8385 13.5616 44.8631C13.5697 45.0661 13.7365 45.2254 13.938 45.2254H13.9521C14.1601 45.2174 14.3219 45.043 14.3149 44.835C14.3124 44.7576 14.2963 44.0058 14.5345 43.0515C15.2847 43.7048 16.237 44.1576 17.2918 44.1576C18.3471 44.1576 19.5039 43.7053 20.6582 42.551C21.7265 41.4827 22.5909 39.9776 22.9692 38.5259C23.3959 36.8897 23.1788 35.5364 22.3582 34.7163C21.2225 33.5801 19.1476 33.7253 17.2315 34.5811ZM11.6752 37.6374C10.8932 36.8565 10.2611 35.756 9.98419 34.6947C9.7068 33.6308 9.82188 32.7464 10.2998 32.268C11.3747 31.1941 14.1516 32.1263 15.6707 33.6434C16.0832 34.056 16.3742 34.4831 16.5531 34.9163C16.1169 35.155 15.6983 35.4289 15.3084 35.7319C14.6641 35.1173 13.8671 34.6806 12.9149 34.4535C12.7139 34.4037 12.5093 34.5298 12.4611 34.7329C12.4129 34.9354 12.5375 35.1384 12.7405 35.1866C13.532 35.3756 14.1948 35.7294 14.733 36.2223C14.6631 36.2872 14.5903 36.35 14.5234 36.4168C13.841 37.0992 13.3722 37.8344 13.1254 38.5867C12.6315 38.4188 12.1445 38.1068 11.6752 37.6374ZM22.2396 38.3349C21.8934 39.6631 21.1029 41.0395 20.125 42.0174C18.3782 43.7641 16.3883 43.8591 14.8008 42.2716C14.7953 42.2661 14.7908 42.2606 14.7852 42.2551C15.3079 40.8912 16.4064 39.3892 18.7235 38.8344C18.926 38.7857 19.0506 38.5827 19.0024 38.3801C18.9541 38.1776 18.7521 38.053 18.5481 38.1012C16.1511 38.6746 14.9053 40.1711 14.2581 41.6113C13.8802 41.0465 13.6787 40.4364 13.6767 39.8118C13.6732 38.8455 14.1506 37.8555 15.0566 36.95C16.3913 35.6153 18.4667 34.6349 20.0783 34.6349C20.7823 34.6349 21.3979 34.8223 21.825 35.249C22.4396 35.863 22.5909 36.9877 22.2396 38.3349Z" fill="#282107"/>
</svg>
