<svg width="39" height="51" viewBox="0 0 39 51" fill="none" xmlns="http://www.w3.org/2000/svg">
<path d="M34.9703 30.3896C34.9698 30.3896 34.9698 30.3896 34.9703 30.3896C33.9312 30.3896 32.9539 30.7954 32.2191 31.5317L27.5619 36.2014C27.5911 36.0096 27.6107 35.8152 27.6107 35.6153C27.6107 33.4658 25.8659 31.717 23.7219 31.717H17.672H9.80713C9.778 30.808 9.0357 30.0757 8.12164 30.0757H2.56648C1.63434 30.0757 0.875977 30.8361 0.875977 31.7703V46.5127C0.875977 47.4468 1.63434 48.2067 2.56648 48.2067H8.12164C9.00356 48.2067 9.72175 47.5242 9.79758 46.6599C12.8687 49.2694 15.9323 50.5737 18.9728 50.5737C22.4146 50.5732 25.8257 48.9008 29.1791 45.558L37.72 37.0432C39.2363 35.5239 39.2363 33.0509 37.72 31.5312C36.9858 30.7954 36.0095 30.3896 34.9703 30.3896ZM8.12164 47.4544H2.56648C2.04969 47.4544 1.62932 47.0325 1.62932 46.5137V31.7708C1.62932 31.252 2.04969 30.8296 2.56648 30.8296H8.12164C8.63844 30.8296 9.05931 31.252 9.05931 31.7708V32.0927V32.0937V45.8412V45.8422V46.5132C9.05931 47.0325 8.63894 47.4544 8.12164 47.4544ZM37.1872 36.5113L28.6473 45.0251C22.5095 51.1438 16.1734 51.3612 9.81265 45.674V32.4704H17.672H23.7224C25.4511 32.4704 26.8578 33.8811 26.8578 35.6153C26.8578 36.4375 26.5389 37.1848 26.0226 37.7453L25.8458 37.9226C25.2868 38.4404 24.542 38.7598 23.7224 38.7598H17.672C17.4641 38.7598 17.2954 38.9285 17.2954 39.1365C17.2954 39.3444 17.4641 39.5131 17.672 39.5131H23.7224C24.7073 39.5131 25.6048 39.1415 26.2908 38.5343C26.2988 38.5278 26.3084 38.5247 26.3159 38.5177L26.3827 38.4509C26.441 38.3962 26.4972 38.3399 26.552 38.2817L32.753 32.0636C33.3451 31.4699 34.1326 31.143 34.9698 31.143C35.8071 31.143 36.594 31.4699 37.1862 32.0636C38.4096 33.2905 38.4096 35.2854 37.1872 36.5113ZM7.19151 33.737V34.8745C7.19151 35.0825 7.02277 35.2512 6.81484 35.2512C6.60692 35.2512 6.43817 35.0825 6.43817 34.8745V33.737C6.43817 33.5291 6.60692 33.3603 6.81484 33.3603C7.02277 33.3603 7.19151 33.5291 7.19151 33.737ZM24.088 26.7118C26.1688 26.7118 28.4514 25.8188 30.7325 23.5387C32.8821 21.3902 34.6198 18.3642 35.3812 15.4448C36.2209 12.223 35.8111 9.57723 34.228 7.9947C31.9344 5.70152 27.6498 6.09728 23.754 7.95302C23.3422 6.82802 22.6115 5.73366 21.5729 4.69505C17.9859 1.11416 11.6694 -0.900287 8.89909 1.867C7.60184 3.16627 7.26484 5.33037 7.95038 7.96055C8.56913 10.3336 9.9814 12.7915 11.7287 14.5357C12.9646 15.7712 14.2755 16.5663 15.6285 16.9148C15.5546 17.3412 15.5054 17.7676 15.5069 18.1945C15.5135 20.0899 16.2553 21.9145 17.6509 23.5151C16.7575 26.2236 16.8183 28.5098 16.8198 28.56C16.8278 28.7624 16.9945 28.9221 17.1959 28.9221C17.201 28.9221 17.206 28.9221 17.2105 28.9216C17.4184 28.9136 17.5806 28.7388 17.5726 28.5309C17.5706 28.4857 17.5179 26.53 18.2376 24.1389C19.7663 25.6335 21.8039 26.7118 24.088 26.7118ZM12.261 14.0024C10.6047 12.3485 9.26572 10.0182 8.67962 7.7697C8.07293 5.44287 8.34714 3.48568 9.43246 2.39936C11.8612 -0.0279144 17.769 1.96091 21.0405 5.22742C22.0264 6.21329 22.7064 7.24337 23.0735 8.29252C21.9877 8.86406 20.9441 9.54609 19.9964 10.312C18.685 8.96903 17.0096 8.0404 14.9997 7.56128C14.7968 7.51357 14.5939 7.63762 14.5462 7.84052C14.4979 8.04241 14.623 8.24632 14.8254 8.29403C16.6746 8.73549 18.216 9.58125 19.4213 10.8007C19.1667 11.0257 18.9186 11.2552 18.682 11.4922C17.2065 12.9673 16.2367 14.5593 15.7922 16.1795C14.5793 15.8606 13.393 15.1334 12.261 14.0024ZM16.2603 18.191C16.2532 16.0957 17.2748 13.9632 19.2144 12.0246C22.0239 9.21612 26.4013 7.17105 29.8451 7.17105C31.3925 7.17105 32.7525 7.58438 33.6957 8.52707C35.0622 9.89313 35.4108 12.345 34.6519 15.2549C33.9232 18.0503 32.2588 20.9482 30.2002 23.0063C26.4324 26.7721 22.1283 26.9684 18.6881 23.5292C18.6238 23.4649 18.5685 23.3976 18.5067 23.3323C19.5896 20.3621 21.9209 16.9957 26.9447 15.7943C27.1466 15.7456 27.2717 15.5427 27.2234 15.3403C27.1747 15.1384 26.9708 15.0144 26.7694 15.0616C21.6412 16.288 19.1531 19.6344 17.9473 22.6884C16.8504 21.3083 16.2653 19.7735 16.2603 18.191Z" fill="#282107"/>
</svg>
