<svg width="34" height="29" viewBox="0 0 34 29" fill="none" xmlns="http://www.w3.org/2000/svg">
<path fill-rule="evenodd" clip-rule="evenodd" d="M10.2987 13.8107C10.2987 13.8107 16.9478 12.1484 19.959 16.7255C44.1174 53.4261 31.9954 -7.76076 10.2987 13.8107Z" fill="#FCBE21"/>
<path fill-rule="evenodd" clip-rule="evenodd" d="M7.30765 14.5921C18.6692 -0.766544 23.8879 12.6655 30.5336 10.7689C33.8805 9.81221 26.5716 -3.16688 16.0511 0.727008C5.5307 4.6209 7.30765 14.5938 7.30765 14.5938V14.5921Z" fill="#FCBE21"/>
<path fill-rule="evenodd" clip-rule="evenodd" d="M5.95899 14.5107C-3.599 -0.247816 10.6557 0.835169 7.23477 6.08382C5.86341 8.18827 4.60092 11.202 5.95899 14.5107Z" fill="#FCBE21"/>
<path fill-rule="evenodd" clip-rule="evenodd" d="M3.78125 14.9307C-3.80613 11.1232 2.39243 8.08872 2.25197 11.1074C2.19545 12.3184 2.40656 13.8826 3.78125 14.9307Z" fill="#FCBE21"/>
</svg>
