<svg width="190" height="252" viewBox="0 0 190 252" fill="none" xmlns="http://www.w3.org/2000/svg">
<path d="M114.47 2.24658C114.47 2.24658 98.266 4.5334 95.1021 17.683C95.0306 17.9798 94.9744 18.2601 94.9252 18.5324C94.876 18.2601 94.8197 17.9798 94.7483 17.683C91.5842 4.5334 75.3799 2.24658 75.3799 2.24658C79.7824 3.67595 78.8191 19.5184 78.8191 19.5184C78.8191 19.5184 93.1758 28.0241 94.925 21.7071C96.6744 28.0241 111.031 19.5184 111.031 19.5184C111.031 19.5184 110.068 3.67622 114.47 2.24658Z" fill="#FF7777"/>
<path d="M0.00878906 156.912C0.241258 209.05 42.5747 251.245 94.7677 251.245C146.96 251.245 189.294 209.05 189.527 156.912H0.00878906Z" fill="#8B0000"/>
<path opacity="0.2" d="M62.2566 237.319C32.992 202.634 78.1628 194.355 78.1628 194.355L39.6178 156.912H0.00878906C0.241258 209.05 42.5747 251.245 94.7677 251.245C97.3804 251.245 99.9668 251.134 102.526 250.927C85.7503 251.148 70.7225 247.352 62.2566 237.319Z" fill="black"/>
<path d="M94.7744 194.921C147.108 194.921 189.532 178.298 189.532 157.793C189.532 137.288 147.108 120.665 94.7744 120.665C42.4411 120.665 0.0166016 137.288 0.0166016 157.793C0.0166016 178.298 42.4411 194.921 94.7744 194.921Z" fill="#A40000"/>
<path d="M94.4049 192.64C143.47 192.64 183.245 177.055 183.245 157.83C183.245 138.605 143.47 123.02 94.4049 123.02C45.3397 123.02 5.56445 138.605 5.56445 157.83C5.56445 177.055 45.3397 192.64 94.4049 192.64Z" fill="#FF9999"/>
<path d="M138.743 130.326C123.44 126.499 104.997 124.652 86.1865 125.384C79.5502 125.642 75.0374 128.142 76.689 130.674L89.323 150.04C91.4984 153.374 102.354 154.369 108.077 151.758L141.126 136.682C145.427 134.721 144.308 131.717 138.743 130.326Z" fill="#A40000"/>
<path d="M96.1405 130.028C99.9744 129.644 102.288 128.115 101.308 126.613C100.328 125.111 96.4255 124.204 92.5915 124.588C88.7576 124.972 86.4442 126.501 87.4241 128.004C88.4043 129.506 92.3065 130.413 96.1405 130.028Z" fill="#7E0000"/>
<path d="M85.2606 135.908C89.0945 135.524 91.4081 133.995 90.428 132.493C89.4481 130.991 85.5456 130.085 81.7116 130.468C77.8777 130.852 75.5643 132.382 76.5442 133.884C77.5244 135.386 81.4269 136.292 85.2606 135.908Z" fill="#7E0000"/>
<path d="M105.121 138.71C106.101 140.212 110.004 141.118 113.838 140.734C117.672 140.35 119.985 138.821 119.005 137.319C118.025 135.817 114.123 134.91 110.289 135.294C106.455 135.678 104.141 137.207 105.121 138.71Z" fill="#7E0000"/>
<path d="M116.51 133.493C120.344 133.109 122.657 131.58 121.677 130.078C121.491 129.792 121.197 129.528 120.82 129.291C121.392 128.749 121.546 128.135 121.148 127.524C120.167 126.022 116.265 125.115 112.431 125.5C108.597 125.884 106.284 127.413 107.264 128.915C107.45 129.201 107.744 129.464 108.121 129.702C107.549 130.243 107.395 130.858 107.793 131.469C108.773 132.971 112.676 133.877 116.51 133.493Z" fill="#7E0000"/>
<path d="M129.307 127.956C125.473 128.34 123.16 129.869 124.14 131.371C125.12 132.874 129.022 133.78 132.856 133.396C136.69 133.012 139.004 131.483 138.024 129.981C137.044 128.478 133.141 127.572 129.307 127.956Z" fill="#7E0000"/>
<path d="M130.263 136.191C126.429 136.575 124.116 138.105 125.096 139.607C126.076 141.109 129.978 142.016 133.812 141.632C137.646 141.248 139.96 139.719 138.98 138.216C138 136.714 134.097 135.807 130.263 136.191Z" fill="#7E0000"/>
<path d="M94.7585 148C90.9248 148.384 88.6112 149.913 89.5911 151.415C90.571 152.917 94.4735 153.824 98.3074 153.44C102.141 153.056 104.455 151.527 103.475 150.024C102.495 148.523 98.5924 147.616 94.7585 148Z" fill="#7E0000"/>
<path d="M93.1862 134.255C89.3523 134.639 87.0386 136.168 88.0188 137.67C88.3599 138.193 89.0604 138.641 89.9833 138.99C89.1146 138.947 88.212 138.964 87.3123 139.054C83.4784 139.438 81.1647 140.967 82.1449 142.469C83.1248 143.971 87.0273 144.878 90.8612 144.494C94.6952 144.11 97.0088 142.581 96.0286 141.078C95.6875 140.556 94.9871 140.107 94.0641 139.758C94.9329 139.801 95.8354 139.785 96.7352 139.694C100.569 139.31 102.883 137.781 101.903 136.279C100.922 134.777 97.0199 133.87 93.1862 134.255Z" fill="#7E0000"/>
<path d="M92.7816 131.659C91.7854 132.434 91.4645 133.347 92.056 134.254C93.356 136.247 98.5328 137.449 103.619 136.94C108.704 136.43 111.774 134.402 110.474 132.409C109.174 130.416 103.997 129.214 98.911 129.723C96.9398 129.92 95.2771 130.348 94.049 130.911C93.7043 131.179 93.2803 131.431 92.7816 131.659Z" fill="#CC0101"/>
<path d="M123.705 131.648C124.67 131.672 125.661 131.639 126.649 131.54C127.625 131.442 128.526 131.288 129.336 131.089C132.144 130.4 131.861 128.754 128.852 128.209C126.143 127.719 123.364 127.286 120.528 126.913C117.418 126.503 114.279 127.58 115.069 128.828C115.075 128.837 115.08 128.846 115.086 128.854C115.937 130.159 118.454 131.121 121.516 131.49C120.135 131.456 118.704 131.537 117.302 131.763C113.33 132.402 110.902 134.053 111.51 135.719C112.387 138.121 118.711 139.564 124.497 138.659C128.451 138.04 130.896 136.413 130.364 134.758C129.868 133.213 127.127 132.06 123.705 131.648Z" fill="#CC0101"/>
<path d="M106.364 129.702C108.88 129.567 110.986 129.073 112.442 128.382C114.381 127.46 113.05 126.056 110.059 125.827C106.894 125.584 103.68 125.414 100.433 125.318C97.4332 125.23 95.2127 126.433 96.4201 127.513C96.4359 127.527 96.4519 127.541 96.4682 127.556C98.1765 129.035 102.258 129.922 106.364 129.702Z" fill="#CC0101"/>
<path d="M137.823 130.1C136.978 129.896 135.917 129.87 135.033 130.046C131.153 130.819 129.013 132.562 130.136 134.283C131.188 135.895 134.777 136.987 138.803 137.076C139.69 137.095 140.549 136.947 141.128 136.683C145.429 134.721 144.311 131.718 138.747 130.327C138.44 130.25 138.132 130.174 137.823 130.1Z" fill="#CC0101"/>
<path d="M96.0956 145.381C95.1206 143.886 91.965 142.836 88.3025 142.619C86.414 142.508 84.871 143.213 85.3439 143.938L88.4299 148.668C88.9029 149.393 91.1206 149.722 92.6403 149.268C95.5881 148.39 97.0705 146.875 96.0956 145.381Z" fill="#CC0101"/>
<path d="M117.033 139.082C116.851 139.104 116.671 139.129 116.49 139.155C112.469 139.748 109.928 141.374 110.424 143.046C110.431 143.072 110.44 143.097 110.449 143.123C111.286 145.536 118.884 146.491 123.267 144.765C123.803 144.553 124.352 144.331 124.889 144.104C130.237 141.841 124.546 138.164 117.033 139.082Z" fill="#CC0101"/>
<path d="M110.899 150.472L113.27 149.39C114.761 148.71 115.247 147.759 114.41 146.924C114.397 146.912 114.384 146.899 114.371 146.886C112.623 145.197 107.878 144.231 103.354 144.654C98.1774 145.138 95.0342 147.187 96.3472 149.199C96.3934 149.27 96.4451 149.34 96.502 149.41C98.9533 152.418 105.649 152.867 110.899 150.472Z" fill="#CC0101"/>
<path d="M100.847 144.785C106.097 144.785 110.352 143.118 110.352 141.061C110.352 139.004 106.097 137.337 100.847 137.337C95.5982 137.337 91.3428 139.004 91.3428 141.061C91.3428 143.118 95.5982 144.785 100.847 144.785Z" fill="#CC0101"/>
<path d="M86.4348 140.684C86.8364 140.644 87.2378 140.592 87.6369 140.529C91.9452 139.844 94.4098 137.985 93.3318 136.213C92.0978 134.184 86.8679 132.952 81.7312 133.467C81.7207 133.468 81.71 133.469 81.6995 133.47C80.0349 133.639 79.0713 134.323 79.4969 134.976L82.6296 139.778C83.0586 140.435 84.7578 140.851 86.4348 140.684Z" fill="#CC0101"/>
<path d="M76.5286 130.38C78.055 132.24 83.0231 133.337 87.9179 132.847C89.8891 132.65 91.5517 132.222 92.7799 131.659C93.1243 131.391 93.5483 131.14 94.0473 130.911C95.0435 130.136 95.3644 129.224 94.7729 128.317C93.5212 126.398 88.6761 125.217 83.7785 125.586C78.7416 126.245 75.5435 128.272 76.5286 130.38Z" fill="#CC0101"/>
<path d="M128.362 133.666C128.9 134.49 127.631 135.328 125.528 135.539C123.426 135.75 121.286 135.252 120.748 134.429C120.211 133.605 121.479 132.766 123.582 132.556C125.685 132.345 127.825 132.842 128.362 133.666Z" fill="#F50000"/>
<path d="M109.717 126.847C110.254 127.67 108.985 128.509 106.883 128.72C104.78 128.93 102.64 128.433 102.103 127.609C101.565 126.786 102.834 125.947 104.937 125.736C107.039 125.526 109.179 126.023 109.717 126.847Z" fill="#F50000"/>
<path d="M91.0908 128.712C91.6282 129.536 90.3597 130.375 88.257 130.585C86.1545 130.796 84.0142 130.299 83.4768 129.475C82.9395 128.651 84.208 127.813 86.3107 127.602C88.4134 127.391 90.5535 127.888 91.0908 128.712Z" fill="#F50000"/>
<path d="M109.129 132.543C109.666 133.367 108.398 134.206 106.295 134.416C104.193 134.627 102.053 134.13 101.515 133.306C100.978 132.482 102.246 131.644 104.349 131.433C106.452 131.223 108.592 131.72 109.129 132.543Z" fill="#F50000"/>
<path d="M90.9844 136.384C91.5217 137.207 90.253 138.046 88.1505 138.257C86.0481 138.467 83.908 137.97 83.3704 137.146C82.833 136.323 84.1018 135.484 86.2042 135.274C88.307 135.063 90.447 135.56 90.9844 136.384Z" fill="#F50000"/>
<path d="M108.874 140.475C109.411 141.299 108.143 142.138 106.04 142.348C103.938 142.559 101.797 142.061 101.26 141.238C100.723 140.414 101.991 139.575 104.094 139.365C106.197 139.154 108.337 139.651 108.874 140.475Z" fill="#F50000"/>
<path d="M109.246 147.259C109.783 148.083 108.515 148.921 106.412 149.132C104.31 149.343 102.169 148.846 101.632 148.022C101.095 147.198 102.363 146.359 104.466 146.149C106.568 145.938 108.709 146.435 109.246 147.259Z" fill="#F50000"/>
<path d="M124.039 142.582C124.576 143.406 123.308 144.244 121.205 144.455C119.103 144.666 116.962 144.168 116.425 143.345C115.888 142.521 117.157 141.682 119.259 141.472C121.362 141.261 123.502 141.758 124.039 142.582Z" fill="#F50000"/>
<path d="M140.592 133.206C141.129 134.029 139.86 134.868 137.758 135.079C135.655 135.289 133.515 134.792 132.978 133.968C132.44 133.145 133.709 132.306 135.812 132.095C137.915 131.885 140.054 132.382 140.592 133.206Z" fill="#F50000"/>
<path d="M126.804 128.952C127.341 129.776 126.073 130.615 123.97 130.825C121.867 131.036 119.727 130.539 119.19 129.715C118.652 128.891 119.921 128.052 122.024 127.842C124.126 127.631 126.266 128.128 126.804 128.952Z" fill="#F50000"/>
<path d="M95.2969 145.46C95.8342 146.284 94.5657 147.123 92.463 147.333C90.3606 147.544 88.2203 147.047 87.6829 146.223C87.1455 145.399 88.414 144.561 90.5167 144.35C92.6195 144.139 94.7595 144.637 95.2969 145.46Z" fill="#F50000"/>
<path d="M49.9725 185.091C65.2756 188.918 83.7178 190.765 102.529 190.033C109.165 189.775 113.678 187.275 112.026 184.743L99.3922 165.377C97.2168 162.042 86.3615 161.048 80.6377 163.659L47.5887 178.735C43.2876 180.697 44.4076 183.7 49.9725 185.091Z" fill="#A40000"/>
<path d="M49.7347 177.201C48.7548 175.699 51.0681 174.17 54.9021 173.786C58.7357 173.402 62.6382 174.309 63.6184 175.811C64.5983 177.313 62.2849 178.842 58.451 179.226C54.6171 179.61 50.7146 178.703 49.7347 177.201ZM74.877 174.683C71.043 175.067 68.7297 176.596 69.7096 178.098C70.6895 179.6 74.592 180.507 78.4259 180.123C82.2596 179.739 84.5732 178.21 83.5933 176.707C82.6134 175.206 78.7109 174.299 74.877 174.683ZM72.2054 181.924C68.3714 182.308 66.0578 183.837 67.038 185.339C67.2243 185.625 67.5176 185.889 67.8949 186.127C67.3227 186.668 67.1687 187.282 67.5676 187.893C68.5475 189.396 72.45 190.302 76.2839 189.918C80.1176 189.534 82.4312 188.005 81.4513 186.503C81.2648 186.217 80.9717 185.953 80.5944 185.715C81.1666 185.174 81.3206 184.56 80.922 183.949C79.9418 182.447 76.0393 181.54 72.2054 181.924ZM92.5736 185.389C88.7397 185.773 86.4263 187.302 87.4062 188.804C88.3864 190.306 92.2886 191.213 96.1226 190.829C99.9562 190.445 102.27 188.916 101.29 187.413C100.31 185.911 96.4076 185.005 92.5736 185.389ZM103.453 179.509C99.6196 179.893 97.3059 181.422 98.2858 182.924C99.266 184.426 103.169 185.333 107.002 184.949C110.836 184.565 113.149 183.036 112.17 181.534C111.19 180.031 107.287 179.125 103.453 179.509ZM93.9554 167.417C97.7894 167.033 100.103 165.504 99.1228 164.002C98.1427 162.499 94.2404 161.593 90.4065 161.977C86.5726 162.361 84.2589 163.89 85.2391 165.392C86.2193 166.895 90.1215 167.801 93.9554 167.417ZM71.6699 171.509C75.5039 171.125 77.8175 169.596 76.8373 168.094C75.8572 166.592 71.9549 165.685 68.121 166.069C64.287 166.453 61.9737 167.982 62.9536 169.485C63.9335 170.987 67.836 171.893 71.6699 171.509ZM59.4063 187.461C63.2403 187.077 65.5536 185.548 64.5737 184.046C63.5938 182.543 59.6913 181.637 55.8574 182.021C52.0237 182.405 49.7101 183.934 50.69 185.437C51.6699 186.939 55.5724 187.845 59.4063 187.461ZM95.5274 181.162C99.3614 180.779 101.675 179.249 100.695 177.747C100.354 177.225 99.6533 176.776 98.7303 176.427C99.5991 176.47 100.502 176.454 101.401 176.364C105.235 175.98 107.549 174.45 106.569 172.948C105.589 171.446 101.686 170.539 97.8524 170.923C94.0185 171.307 91.7048 172.836 92.685 174.339C93.0261 174.861 93.7266 175.31 94.6495 175.659C93.7807 175.616 92.8782 175.632 91.9782 175.723C88.1445 176.107 85.8309 177.636 86.8108 179.138C87.791 180.64 91.6935 181.547 95.5274 181.162Z" fill="#7E0000"/>
<path d="M95.9337 183.758C96.9299 182.983 97.2508 182.071 96.6593 181.164C95.359 179.171 90.1825 177.968 85.0967 178.478C80.0108 178.987 76.9417 181.016 78.2417 183.008C79.5417 185.001 84.7185 186.203 89.8044 185.694C91.7752 185.497 93.4379 185.07 94.6663 184.506C95.011 184.238 95.435 183.987 95.9337 183.758Z" fill="#CC0101"/>
<path d="M65.0085 183.769C64.0429 183.746 63.0525 183.778 62.0649 183.877C61.0883 183.975 60.1871 184.129 59.3772 184.328C56.5696 185.018 56.8527 186.664 59.8612 187.208C62.5707 187.698 65.3496 188.131 68.1853 188.505C71.2962 188.915 74.4346 187.838 73.6444 186.589C73.6388 186.581 73.6333 186.572 73.6275 186.563C72.7761 185.258 70.2591 184.296 67.1974 183.928C68.5781 183.961 70.0092 183.88 71.4112 183.655C75.3839 183.015 77.8114 181.364 77.2033 179.699C76.3265 177.297 70.0025 175.854 64.216 176.759C60.2621 177.377 57.8177 179.005 58.349 180.66C58.8451 182.204 61.5869 183.357 65.0085 183.769Z" fill="#CC0101"/>
<path d="M82.3505 185.716C79.8351 185.851 77.7285 186.344 76.2729 187.036C74.3341 187.957 75.6648 189.361 78.6559 189.59C81.8212 189.833 85.0349 190.004 88.2817 190.099C91.2817 190.187 93.5021 188.984 92.2947 187.904C92.279 187.89 92.2629 187.876 92.2466 187.862C90.5381 186.382 86.457 185.496 82.3505 185.716Z" fill="#CC0101"/>
<path d="M50.8924 185.318C51.7369 185.522 52.7978 185.547 53.6823 185.371C57.5619 184.599 59.7016 182.854 58.5791 181.134C57.5273 179.522 53.9377 178.43 49.9122 178.341C49.0252 178.322 48.1664 178.47 47.5873 178.734C43.2865 180.696 44.4046 183.699 49.9684 185.09C50.2749 185.167 50.5831 185.243 50.8924 185.318Z" fill="#CC0101"/>
<path d="M92.6196 170.036C93.5948 171.531 96.7504 172.581 100.413 172.798C102.301 172.91 103.844 172.204 103.371 171.479L100.285 166.749C99.8123 166.024 97.5949 165.696 96.0749 166.149C93.1271 167.027 91.6447 168.542 92.6196 170.036Z" fill="#CC0101"/>
<path d="M71.6824 176.335C71.8634 176.313 72.0442 176.289 72.2247 176.262C76.2458 175.67 78.7872 174.043 78.2913 172.371C78.2838 172.345 78.2755 172.32 78.2667 172.295C77.4289 169.881 69.8312 168.926 65.4486 170.653C64.9118 170.864 64.3628 171.087 63.8263 171.314C58.4778 173.576 64.1685 177.253 71.6824 176.335Z" fill="#CC0101"/>
<path d="M77.8175 164.945L75.4466 166.027C73.9548 166.707 73.4694 167.658 74.3064 168.493C74.3191 168.506 74.3321 168.518 74.3454 168.531C76.0937 170.22 80.8382 171.186 85.3623 170.763C90.5389 170.28 93.682 168.23 92.369 166.218C92.3229 166.147 92.2712 166.077 92.2142 166.007C89.7629 163 83.067 162.551 77.8175 164.945Z" fill="#CC0101"/>
<path d="M78.6587 175.279C79.9587 177.272 85.1355 178.474 90.2213 177.965C95.3072 177.455 98.3763 175.427 97.0763 173.434C95.7763 171.442 90.5995 170.239 85.5136 170.748C80.4278 171.258 77.3587 173.286 78.6587 175.279Z" fill="#CC0101"/>
<path d="M102.281 174.734C101.88 174.774 101.478 174.825 101.079 174.889C96.771 175.574 94.3062 177.432 95.3842 179.204C96.6184 181.233 101.848 182.465 106.985 181.951C106.995 181.949 107.006 181.948 107.017 181.947C108.681 181.778 109.645 181.094 109.219 180.441L106.087 175.639C105.658 174.982 103.958 174.566 102.281 174.734Z" fill="#CC0101"/>
<path d="M112.186 185.037C110.659 183.178 105.691 182.08 100.796 182.571C98.8253 182.768 97.1626 183.195 95.9345 183.759C95.59 184.027 95.1657 184.278 94.6674 184.507C93.6711 185.282 93.3502 186.195 93.9418 187.101C95.1934 189.02 100.038 190.202 104.936 189.832C109.973 189.172 113.171 187.146 112.186 185.037Z" fill="#CC0101"/>
<path d="M60.349 181.751C59.8114 180.927 61.0801 180.089 63.1829 179.878C65.2853 179.667 67.4256 180.164 67.963 180.988C68.5003 181.812 67.2316 182.651 65.1291 182.861C63.0264 183.072 60.8864 182.575 60.349 181.751Z" fill="#F50000"/>
<path d="M78.9954 188.57C78.458 187.747 79.7265 186.908 81.8293 186.697C83.9317 186.487 86.072 186.984 86.6094 187.808C87.1468 188.631 85.8783 189.47 83.7755 189.681C81.6731 189.891 79.5328 189.394 78.9954 188.57Z" fill="#F50000"/>
<path d="M97.6223 186.705C97.085 185.881 98.3538 185.042 100.456 184.832C102.559 184.621 104.699 185.118 105.236 185.942C105.774 186.766 104.505 187.605 102.402 187.815C100.3 188.026 98.16 187.529 97.6223 186.705Z" fill="#F50000"/>
<path d="M79.5862 182.874C79.0489 182.05 80.3174 181.212 82.4201 181.001C84.5225 180.79 86.6629 181.288 87.2002 182.111C87.7376 182.935 86.4691 183.774 84.3664 183.984C82.2636 184.195 80.1236 183.698 79.5862 182.874Z" fill="#F50000"/>
<path d="M97.7298 179.033C97.1924 178.21 98.4609 177.371 100.564 177.16C102.666 176.95 104.806 177.447 105.344 178.271C105.881 179.095 104.613 179.933 102.51 180.144C100.407 180.354 98.2671 179.857 97.7298 179.033Z" fill="#F50000"/>
<path d="M79.8382 174.942C79.3008 174.118 80.5696 173.28 82.672 173.069C84.7745 172.858 86.9145 173.356 87.4522 174.179C87.9895 175.003 86.7207 175.842 84.6183 176.052C82.5158 176.263 80.3755 175.766 79.8382 174.942Z" fill="#F50000"/>
<path d="M79.468 168.158C78.9307 167.335 80.1994 166.496 82.3019 166.285C84.4043 166.075 86.5447 166.572 87.082 167.396C87.6194 168.22 86.3506 169.058 84.2482 169.269C82.1454 169.479 80.0054 168.982 79.468 168.158Z" fill="#F50000"/>
<path d="M64.6751 172.835C64.1377 172.011 65.4062 171.173 67.509 170.962C69.6114 170.752 71.7517 171.249 72.2891 172.073C72.8264 172.896 71.558 173.735 69.4552 173.946C67.3525 174.156 65.2125 173.659 64.6751 172.835Z" fill="#F50000"/>
<path d="M48.1214 182.211C47.584 181.387 48.8525 180.549 50.9552 180.338C53.0577 180.128 55.198 180.625 55.7354 181.449C56.2727 182.273 55.0042 183.111 52.9015 183.322C50.799 183.532 48.6587 183.035 48.1214 182.211Z" fill="#F50000"/>
<path d="M61.9104 186.465C61.3731 185.641 62.6416 184.803 64.7443 184.592C66.8467 184.382 68.9871 184.879 69.5244 185.703C70.0618 186.526 68.793 187.365 66.6906 187.576C64.5878 187.786 62.4478 187.289 61.9104 186.465Z" fill="#F50000"/>
<path d="M93.4174 169.957C92.8797 169.133 94.1485 168.294 96.2512 168.084C98.3537 167.873 100.494 168.37 101.031 169.194C101.569 170.018 100.3 170.857 98.1975 171.067C96.0948 171.277 93.9547 170.78 93.4174 169.957Z" fill="#F50000"/>
<path d="M56.0268 128.955C39.9176 132.235 26.6133 137.569 18.8257 144.318C16.0784 146.699 19.3479 149.481 25.7691 150.186L74.8897 155.582C83.3479 156.511 90.9737 153.325 88.065 150.077L71.2686 131.325C69.0824 128.884 61.8847 127.763 56.0268 128.955Z" fill="#A40000"/>
<path d="M34.0679 143.263C35.136 141.77 32.9133 140.22 29.1031 139.802C25.2929 139.383 21.3382 140.254 20.2698 141.747C19.2015 143.24 21.4244 144.79 25.2346 145.208C29.0448 145.627 32.9998 144.756 34.0679 143.263Z" fill="#7E0000"/>
<path d="M69.7161 138.227C73.5262 138.645 77.481 137.774 78.5493 136.281C79.6177 134.788 77.3947 133.239 73.5846 132.82C69.7744 132.402 65.8197 133.272 64.7513 134.765C63.6829 136.258 65.9056 137.808 69.7161 138.227Z" fill="#7E0000"/>
<path d="M51.0373 134.433C54.8475 134.852 58.8022 133.981 59.8706 132.488C60.939 130.995 58.716 129.445 54.9058 129.027C51.0957 128.608 47.1409 129.479 46.0726 130.972C45.0042 132.465 47.2272 134.014 51.0373 134.433Z" fill="#7E0000"/>
<path d="M37.1674 138.931C37.8922 139.011 38.6219 139.043 39.3362 139.034C40.2462 139.499 41.5268 139.858 43.077 140.029C46.8871 140.447 50.8419 139.576 51.9102 138.083C52.9783 136.59 50.7556 135.041 46.9452 134.622C46.2207 134.543 45.4907 134.51 44.7764 134.519C43.8664 134.055 42.5858 133.695 41.0356 133.525C37.2254 133.106 33.2707 133.977 32.2024 135.47C31.1343 136.963 33.3569 138.513 37.1674 138.931Z" fill="#7E0000"/>
<path d="M61.6147 139.15C57.8046 138.731 53.8495 139.602 52.7815 141.095C51.7134 142.588 53.9361 144.138 57.7465 144.556C61.5567 144.975 65.5114 144.104 66.5798 142.611C67.6476 141.118 65.4249 139.568 61.6147 139.15Z" fill="#7E0000"/>
<path d="M36.6598 146.434C32.8493 146.015 28.8946 146.886 27.8265 148.379C26.7581 149.872 28.9811 151.421 32.7912 151.84C36.6014 152.258 40.5562 151.388 41.6245 149.894C42.6926 148.402 40.4699 146.852 36.6598 146.434Z" fill="#7E0000"/>
<path d="M81.9331 150.772C78.1229 150.354 74.1679 151.224 73.0998 152.717C72.0317 154.21 74.2544 155.76 78.0649 156.178C81.875 156.597 85.8298 155.726 86.8981 154.233C87.9662 152.74 85.7435 151.191 81.9331 150.772Z" fill="#7E0000"/>
<path d="M58.4375 148.826C57.1116 148.68 55.7704 148.694 54.537 148.832C55.0666 148.559 55.4812 148.244 55.7319 147.894C56.8 146.401 54.5773 144.851 50.7672 144.433C46.957 144.014 43.0023 144.885 41.9339 146.378C40.8655 147.871 43.0885 149.421 46.8987 149.839C48.2249 149.985 49.5658 149.971 50.7992 149.833C50.2696 150.106 49.855 150.42 49.6043 150.771C48.5359 152.264 50.7589 153.813 54.569 154.232C58.3792 154.65 62.3339 153.779 63.4023 152.287C64.4704 150.794 62.2477 149.244 58.4375 148.826Z" fill="#7E0000"/>
<path d="M35.9921 145.219C37.2072 145.944 39.0637 146.509 41.3637 146.762C46.4184 147.317 51.6645 146.162 53.0814 144.181C54.4987 142.201 51.5498 140.145 46.4952 139.59C41.4409 139.035 36.1944 140.19 34.7775 142.171C34.2283 142.938 34.3413 143.716 34.9721 144.414C35.3923 144.666 35.7358 144.935 35.9921 145.219Z" fill="#CC0101"/>
<path d="M51.43 134.719C51.9646 134.403 52.3878 134.051 52.6629 133.666C52.9349 133.286 53.0454 132.903 53.0109 132.529C52.8906 131.231 49.11 130.504 46.4033 131.253C43.9653 131.928 41.6185 132.654 39.3745 133.429C36.9133 134.28 37.7254 135.884 40.8791 136.24C40.9012 136.242 40.9233 136.245 40.9457 136.247C44.2553 136.611 47.64 136.237 49.9852 135.383C49.2206 135.834 48.6844 136.361 48.482 136.949C47.9087 138.617 50.3437 140.266 54.3297 140.893C60.0762 141.796 66.428 140.372 67.3206 137.955C67.9306 136.304 65.5567 134.662 61.633 134.014C57.9707 133.41 54.0513 133.764 51.43 134.719Z" fill="#CC0101"/>
<path d="M38.4566 139.631C39.4164 138.71 39.3785 137.748 38.5774 136.908C37.5105 135.79 33.742 135.539 31.7399 136.44C29.6212 137.393 27.6373 138.398 25.803 139.452C24.108 140.425 25.6573 141.78 28.6473 141.911C28.6866 141.912 28.7256 141.914 28.7651 141.915C32.8895 142.076 36.8899 141.134 38.4566 139.631Z" fill="#CC0101"/>
<path d="M55.0659 129.155C54.1927 129.339 53.6067 129.687 53.5536 130.075C53.3206 131.777 56.1053 133.376 60.4696 133.855C64.5587 134.304 68.7653 133.632 70.9747 132.31C71.4615 132.019 71.5629 131.653 71.2685 131.325C69.0826 128.885 61.8866 127.762 56.0292 128.955C55.7069 129.02 55.3857 129.087 55.0659 129.155Z" fill="#CC0101"/>
<path d="M67.9781 150.955C64.1873 150.538 60.2887 151.084 57.9784 152.219C56.7873 152.804 57.5745 153.68 59.4135 153.882L71.4112 155.2C73.25 155.402 75.0854 154.813 74.8438 154.071C74.3753 152.632 71.7689 151.371 67.9781 150.955Z" fill="#CC0101"/>
<path d="M64.5247 140.701C64.483 140.773 64.4465 140.847 64.415 140.921C63.7145 142.582 66.0384 144.258 69.9821 144.926C70.0426 144.936 70.1028 144.946 70.1634 144.955C75.9157 145.878 81.8261 143.777 80.2007 141.427C80.0017 141.139 79.7842 140.841 79.5509 140.546C77.2251 137.599 66.254 137.692 64.5247 140.701Z" fill="#CC0101"/>
<path d="M86.6324 148.477L85.4275 147.132C84.6693 146.286 82.8109 145.646 80.547 145.512C80.5125 145.51 80.4776 145.508 80.4431 145.506C75.8366 145.255 71.3287 146.382 70.0013 148.129C68.4824 150.127 71.4393 152.218 76.5439 152.779C76.723 152.799 76.9044 152.816 77.0876 152.832C84.9592 153.503 89.3001 151.456 86.6324 148.477Z" fill="#CC0101"/>
<path d="M63.3718 143.596C58.3175 143.041 53.071 144.196 51.6541 146.177C50.2371 148.157 53.1857 150.213 58.2403 150.768C63.2949 151.323 68.5411 150.168 69.958 148.187C71.375 146.207 68.4261 144.151 63.3718 143.596Z" fill="#CC0101"/>
<path d="M52.7646 151.885C52.8766 151.728 52.9639 151.566 53.0231 151.399C53.663 149.594 50.7877 147.829 46.3318 147.309C41.2308 146.713 35.8931 147.872 34.4618 149.872C34.4587 149.876 34.456 149.881 34.4529 149.885C33.9946 150.534 35.0251 151.203 36.6809 151.385L48.8608 152.723C50.5273 152.906 52.2964 152.537 52.7646 151.885Z" fill="#CC0101"/>
<path d="M25.0393 150.094C29.9123 150.505 34.8223 149.368 36.1862 147.463C36.7354 146.695 36.6224 145.917 35.9916 145.219C35.5714 144.968 35.2278 144.698 34.9719 144.415C33.7567 143.689 31.9003 143.124 29.6002 142.871C24.7338 142.337 19.7005 143.39 18.0669 145.237C17.0065 147.275 19.8868 149.374 25.0393 150.094Z" fill="#CC0101"/>
<path d="M58.2216 134.147C60.3113 134.377 61.5303 135.227 60.9443 136.045C60.3586 136.864 58.1898 137.342 56.1 137.112C54.0106 136.883 52.7916 136.033 53.3773 135.214C53.963 134.395 56.1321 133.918 58.2216 134.147Z" fill="#F50000"/>
<path d="M33.8242 137.065C35.9137 137.294 37.1327 138.144 36.5469 138.963C35.9612 139.782 33.7924 140.259 31.7027 140.03C29.6132 139.8 28.3939 138.95 28.9799 138.131C29.566 137.313 31.7348 136.835 33.8242 137.065Z" fill="#F50000"/>
<path d="M28.6357 144.318C30.7252 144.547 31.9442 145.397 31.3585 146.216C30.7727 147.035 28.6037 147.513 26.5142 147.283C24.4245 147.053 23.2055 146.203 23.7915 145.385C24.3775 144.566 26.5463 144.089 28.6357 144.318Z" fill="#F50000"/>
<path d="M46.121 140.113C48.2107 140.343 49.4297 141.192 48.8437 142.011C48.2577 142.83 46.0889 143.308 43.9995 143.078C41.91 142.848 40.691 141.999 41.2767 141.18C41.8627 140.361 44.0315 139.883 46.121 140.113Z" fill="#F50000"/>
<path d="M45.538 148.19C47.6277 148.42 48.8467 149.27 48.2607 150.088C47.6747 150.907 45.5059 151.384 43.4165 151.155C41.3267 150.925 40.108 150.076 40.6937 149.257C41.2797 148.438 43.4485 147.96 45.538 148.19Z" fill="#F50000"/>
<path d="M63.5264 144.165C65.6158 144.394 66.8348 145.244 66.2491 146.063C65.6634 146.881 63.4943 147.359 61.4049 147.13C59.3151 146.9 58.0961 146.05 58.6821 145.231C59.2678 144.413 61.4366 143.935 63.5264 144.165Z" fill="#F50000"/>
<path d="M78.705 147.431C80.7947 147.661 82.0137 148.511 81.4277 149.329C80.842 150.148 78.6732 150.626 76.5835 150.396C74.494 150.167 73.275 149.317 73.8607 148.498C74.4464 147.68 76.6155 147.202 78.705 147.431Z" fill="#F50000"/>
<path d="M75.7647 140.073C77.8541 140.302 79.0731 141.152 78.4874 141.971C77.9017 142.79 75.7326 143.267 73.6431 143.038C71.5534 142.808 70.3344 141.959 70.9204 141.14C71.5064 140.321 73.6752 139.843 75.7647 140.073Z" fill="#F50000"/>
<path d="M63.3163 129.768C65.4058 129.997 66.6248 130.847 66.039 131.666C65.4533 132.485 63.2845 132.962 61.1948 132.732C59.1051 132.503 57.8863 131.653 58.4721 130.834C59.0578 130.016 61.2266 129.538 63.3163 129.768Z" fill="#F50000"/>
<path d="M47.0214 132.32C49.1111 132.549 50.3301 133.399 49.7441 134.218C49.1581 135.037 46.9893 135.514 44.8999 135.285C42.8104 135.055 41.5914 134.205 42.1771 133.387C42.7631 132.568 44.9319 132.09 47.0214 132.32Z" fill="#F50000"/>
<path d="M67.7548 151.266C69.8442 151.495 71.0632 152.345 70.4775 153.164C69.8918 153.982 67.723 154.46 65.6332 154.23C63.5438 154.001 62.3248 153.151 62.9105 152.332C63.4965 151.513 65.6653 151.036 67.7548 151.266Z" fill="#F50000"/>
<path d="M132.682 186.462C148.792 183.182 162.096 177.848 169.884 171.099C172.631 168.718 169.362 165.936 162.94 165.231L113.819 159.835C105.361 158.906 97.7354 162.092 100.644 165.34L117.441 184.092C119.626 186.533 126.824 187.654 132.682 186.462Z" fill="#A40000"/>
<path d="M118.995 177.191C115.184 176.772 111.23 177.643 110.161 179.136C109.093 180.629 111.316 182.179 115.126 182.597C118.937 183.016 122.891 182.145 123.96 180.652C125.028 179.159 122.805 177.609 118.995 177.191Z" fill="#7E0000"/>
<path d="M130.274 166.591C131.6 166.737 132.941 166.723 134.174 166.585C133.644 166.858 133.23 167.173 132.979 167.523C131.911 169.016 134.133 170.565 137.944 170.984C141.754 171.402 145.709 170.531 146.777 169.038C147.845 167.545 145.623 165.996 141.812 165.577C140.486 165.432 139.145 165.445 137.912 165.584C138.441 165.311 138.856 164.996 139.107 164.646C140.175 163.153 137.952 161.603 134.142 161.185C130.332 160.766 126.377 161.637 125.309 163.13C124.241 164.623 126.463 166.173 130.274 166.591Z" fill="#7E0000"/>
<path d="M110.647 159.238C106.837 158.82 102.882 159.691 101.814 161.184C100.746 162.677 102.968 164.226 106.779 164.645C110.589 165.063 114.544 164.192 115.612 162.699C116.68 161.206 114.457 159.657 110.647 159.238Z" fill="#7E0000"/>
<path d="M152.05 168.983C155.86 169.402 159.815 168.531 160.883 167.038C161.952 165.545 159.729 163.995 155.919 163.577C152.108 163.158 148.154 164.029 147.085 165.522C146.017 167.015 148.24 168.565 152.05 168.983Z" fill="#7E0000"/>
<path d="M151.543 176.485C150.818 176.406 150.088 176.374 149.374 176.382C148.464 175.918 147.183 175.558 145.633 175.388C141.823 174.97 137.868 175.841 136.8 177.334C135.732 178.827 137.955 180.376 141.765 180.795C142.49 180.874 143.219 180.907 143.934 180.898C144.844 181.362 146.124 181.722 147.674 181.892C151.485 182.311 155.44 181.44 156.508 179.947C157.576 178.454 155.353 176.904 151.543 176.485Z" fill="#7E0000"/>
<path d="M163.475 170.209C159.665 169.79 155.71 170.661 154.642 172.154C153.574 173.647 155.797 175.197 159.607 175.615C163.417 176.034 167.372 175.163 168.44 173.67C169.508 172.177 167.285 170.627 163.475 170.209Z" fill="#7E0000"/>
<path d="M137.673 180.984C133.863 180.565 129.909 181.436 128.84 182.929C127.772 184.422 129.995 185.972 133.805 186.39C137.615 186.809 141.57 185.938 142.638 184.445C143.707 182.952 141.484 181.403 137.673 180.984Z" fill="#7E0000"/>
<path d="M127.096 176.267C130.906 176.686 134.861 175.815 135.929 174.322C136.998 172.829 134.775 171.28 130.964 170.861C127.154 170.443 123.2 171.313 122.131 172.806C121.063 174.299 123.286 175.849 127.096 176.267Z" fill="#7E0000"/>
<path d="M152.718 170.198C151.503 169.473 149.646 168.907 147.346 168.655C142.292 168.099 137.046 169.255 135.629 171.235C134.212 173.216 137.16 175.272 142.215 175.827C147.27 176.382 152.516 175.226 153.933 173.246C154.482 172.478 154.369 171.701 153.738 171.002C153.318 170.751 152.974 170.482 152.718 170.198Z" fill="#CC0101"/>
<path d="M137.28 180.698C136.745 181.013 136.322 181.366 136.047 181.75C135.775 182.13 135.664 182.513 135.699 182.888C135.819 184.185 139.6 184.912 142.307 184.164C144.745 183.489 147.091 182.763 149.335 181.988C151.797 181.137 150.984 179.533 147.831 179.177C147.809 179.175 147.787 179.172 147.764 179.17C144.455 178.806 141.07 179.179 138.725 180.034C139.489 179.582 140.025 179.056 140.228 178.467C140.801 176.8 138.366 175.151 134.38 174.524C128.634 173.621 122.282 175.045 121.389 177.461C120.779 179.112 123.153 180.755 127.077 181.402C130.739 182.007 134.659 181.653 137.28 180.698Z" fill="#CC0101"/>
<path d="M150.253 175.786C149.293 176.707 149.33 177.669 150.131 178.509C151.198 179.628 154.967 179.878 156.969 178.977C159.088 178.025 161.072 177.02 162.906 175.966C164.601 174.992 163.052 173.637 160.062 173.506C160.023 173.505 159.983 173.503 159.944 173.501C155.819 173.341 151.819 174.283 150.253 175.786Z" fill="#CC0101"/>
<path d="M133.644 186.262C134.517 186.077 135.103 185.73 135.156 185.342C135.389 183.639 132.605 182.041 128.24 181.562C124.151 181.113 119.944 181.785 117.735 183.107C117.248 183.398 117.147 183.763 117.441 184.092C119.627 186.532 126.823 187.654 132.68 186.462C133.003 186.396 133.324 186.33 133.644 186.262Z" fill="#CC0101"/>
<path d="M120.732 164.462C124.523 164.878 128.421 164.333 130.732 163.198C131.923 162.613 131.136 161.737 129.297 161.535L117.299 160.217C115.46 160.015 113.625 160.603 113.866 161.345C114.335 162.785 116.941 164.046 120.732 164.462Z" fill="#CC0101"/>
<path d="M124.186 174.716C124.228 174.644 124.264 174.57 124.296 174.496C124.996 172.835 122.672 171.159 118.728 170.492C118.668 170.481 118.608 170.471 118.547 170.462C112.795 169.54 106.884 171.64 108.51 173.991C108.709 174.278 108.926 174.576 109.16 174.872C111.485 177.818 122.456 177.725 124.186 174.716Z" fill="#CC0101"/>
<path d="M102.077 166.94L103.282 168.285C104.041 169.132 105.899 169.771 108.163 169.905C108.198 169.907 108.232 169.909 108.267 169.911C112.874 170.162 117.381 169.035 118.709 167.288C120.228 165.29 117.271 163.199 112.166 162.638C111.987 162.619 111.806 162.601 111.623 162.585C103.75 161.913 99.4098 163.961 102.077 166.94Z" fill="#CC0101"/>
<path d="M125.338 171.821C130.393 172.376 135.639 171.221 137.056 169.24C138.473 167.26 135.524 165.204 130.469 164.649C125.415 164.094 120.169 165.249 118.752 167.23C117.335 169.21 120.283 171.266 125.338 171.821Z" fill="#CC0101"/>
<path d="M135.945 163.533C135.833 163.689 135.746 163.851 135.687 164.018C135.047 165.823 137.922 167.588 142.378 168.108C147.479 168.704 152.817 167.545 154.248 165.545C154.251 165.541 154.254 165.537 154.257 165.533C154.715 164.883 153.684 164.214 152.029 164.032L139.849 162.694C138.182 162.511 136.413 162.88 135.945 163.533Z" fill="#CC0101"/>
<path d="M163.671 165.323C158.798 164.911 153.887 166.048 152.524 167.955C151.974 168.722 152.087 169.5 152.718 170.198C153.138 170.449 153.482 170.719 153.738 171.002C154.953 171.728 156.81 172.293 159.11 172.546C163.976 173.08 169.01 172.027 170.643 170.181C171.703 168.141 168.823 166.043 163.671 165.323Z" fill="#CC0101"/>
<path d="M130.489 181.27C128.399 181.04 127.18 180.19 127.766 179.372C128.352 178.553 130.521 178.075 132.61 178.305C134.7 178.534 135.919 179.384 135.333 180.203C134.747 181.022 132.578 181.5 130.489 181.27Z" fill="#F50000"/>
<path d="M154.886 178.352C152.797 178.123 151.578 177.273 152.164 176.454C152.749 175.635 154.918 175.158 157.008 175.387C159.097 175.617 160.316 176.466 159.731 177.285C159.145 178.104 156.976 178.582 154.886 178.352Z" fill="#F50000"/>
<path d="M160.075 171.099C157.985 170.869 156.766 170.019 157.352 169.201C157.938 168.382 160.107 167.904 162.196 168.134C164.286 168.363 165.505 169.213 164.919 170.032C164.333 170.851 162.164 171.329 160.075 171.099Z" fill="#F50000"/>
<path d="M142.589 175.304C140.5 175.074 139.281 174.224 139.867 173.406C140.452 172.587 142.621 172.109 144.711 172.339C146.8 172.568 148.019 173.418 147.434 174.237C146.848 175.056 144.679 175.533 142.589 175.304Z" fill="#F50000"/>
<path d="M143.172 167.227C141.083 166.997 139.864 166.147 140.45 165.328C141.035 164.51 143.204 164.032 145.294 164.262C147.383 164.491 148.603 165.341 148.017 166.16C147.431 166.979 145.262 167.456 143.172 167.227Z" fill="#F50000"/>
<path d="M125.184 171.252C123.095 171.023 121.875 170.173 122.461 169.354C123.047 168.535 125.216 168.058 127.306 168.287C129.395 168.517 130.614 169.367 130.028 170.186C129.443 171.004 127.274 171.482 125.184 171.252Z" fill="#F50000"/>
<path d="M110.006 167.986C107.917 167.756 106.698 166.906 107.284 166.088C107.869 165.269 110.038 164.791 112.128 165.021C114.218 165.25 115.437 166.1 114.851 166.919C114.265 167.738 112.096 168.215 110.006 167.986Z" fill="#F50000"/>
<path d="M112.946 175.344C110.856 175.115 109.637 174.265 110.223 173.446C110.809 172.627 112.978 172.149 115.067 172.379C117.157 172.609 118.376 173.459 117.79 174.277C117.204 175.096 115.035 175.573 112.946 175.344Z" fill="#F50000"/>
<path d="M125.393 185.649C123.304 185.42 122.084 184.57 122.67 183.751C123.256 182.933 125.425 182.455 127.515 182.685C129.604 182.914 130.823 183.764 130.237 184.583C129.652 185.402 127.483 185.879 125.393 185.649Z" fill="#F50000"/>
<path d="M141.689 183.097C139.599 182.868 138.38 182.018 138.966 181.199C139.552 180.38 141.721 179.902 143.81 180.132C145.9 180.362 147.119 181.211 146.533 182.03C145.947 182.849 143.778 183.326 141.689 183.097Z" fill="#F50000"/>
<path d="M120.956 164.152C118.866 163.922 117.647 163.072 118.233 162.253C118.819 161.435 120.988 160.957 123.077 161.186C125.167 161.416 126.386 162.266 125.8 163.085C125.214 163.903 123.045 164.381 120.956 164.152Z" fill="#F50000"/>
<path d="M11.6425 156.338C10.8365 163.444 15.9743 170.626 26.9977 176.643C30.8866 178.766 38.6689 179.047 43.4388 177.221L79.9257 163.251C86.2081 160.845 82.9787 156.664 74.3464 156.028L24.5013 152.351C18.0135 151.873 11.9355 153.754 11.6425 156.338Z" fill="#A40000"/>
<path d="M38.9773 156.329C41.8076 155.245 41.8601 153.467 39.0945 152.359C36.3289 151.25 31.7923 151.229 28.9621 152.313C26.1318 153.396 26.0796 155.174 28.8451 156.283C31.6107 157.392 36.147 157.412 38.9773 156.329Z" fill="#7E0000"/>
<path d="M21.2537 160.77C24.0839 159.687 24.1362 157.909 21.3706 156.8C18.605 155.691 14.0684 155.671 11.2384 156.754C8.40818 157.838 8.35593 159.616 11.1215 160.724C13.8868 161.834 18.4231 161.854 21.2537 160.77Z" fill="#7E0000"/>
<path d="M36.968 159.539C34.1378 160.623 34.0852 162.4 36.8511 163.509C39.6167 164.618 44.1533 164.639 46.9833 163.555C49.8135 162.472 49.8658 160.694 47.1002 159.585C44.3346 158.476 39.7983 158.456 36.968 159.539Z" fill="#7E0000"/>
<path d="M22.1525 170.897C19.3222 171.981 19.27 173.758 22.0356 174.867C24.8011 175.976 29.3377 175.997 32.168 174.913C34.9983 173.829 35.0505 172.052 32.2849 170.943C29.5194 169.834 24.983 169.814 22.1525 170.897Z" fill="#7E0000"/>
<path d="M19.6276 162.253C19.0894 162.459 18.6529 162.691 18.3157 162.938C16.8335 163.014 15.3989 163.269 14.2473 163.71C11.4171 164.794 11.3645 166.571 14.1304 167.68C16.896 168.789 21.4326 168.81 24.2626 167.726C24.801 167.52 25.2375 167.289 25.5745 167.042C27.0566 166.965 28.4912 166.711 29.6428 166.269C32.4731 165.186 32.5253 163.408 29.7597 162.299C26.9941 161.19 22.4578 161.17 19.6276 162.253Z" fill="#7E0000"/>
<path d="M56.7651 165.456C55.78 165.833 55.1395 166.295 54.8291 166.783C54.4899 166.466 54.0021 166.168 53.353 165.908C50.5874 164.799 46.0508 164.779 43.2209 165.862C40.3906 166.946 40.3384 168.723 43.1039 169.832C45.8695 170.941 50.4061 170.962 53.2361 169.878C54.2213 169.501 54.8614 169.039 55.1721 168.551C55.5113 168.868 55.9992 169.166 56.6482 169.426C59.4138 170.535 63.9501 170.555 66.7804 169.472C69.6106 168.388 69.6629 166.611 66.8973 165.502C64.1317 164.393 59.5954 164.372 56.7651 165.456Z" fill="#7E0000"/>
<path d="M82.9478 158.502C80.1822 157.393 75.6456 157.372 72.8156 158.456C69.9853 159.54 69.9331 161.317 72.6987 162.426C75.4642 163.535 80.0008 163.555 82.8308 162.472C85.6611 161.388 85.7133 159.611 82.9478 158.502Z" fill="#7E0000"/>
<path d="M40.588 171.649C37.7578 172.733 37.7055 174.51 40.4711 175.619C43.2367 176.728 47.7733 176.749 50.6036 175.665C53.4338 174.581 53.4861 172.804 50.7205 171.695C47.9546 170.586 43.4183 170.565 40.588 171.649Z" fill="#7E0000"/>
<path d="M37.5691 171.268C39.7805 171.219 41.9578 170.872 43.6664 170.218C47.4207 168.78 47.4904 166.422 43.8215 164.951C40.1525 163.48 34.1349 163.453 30.3806 164.89C26.6259 166.328 26.5566 168.686 30.2255 170.157C31.6474 170.727 33.4231 171.077 35.282 171.213C36.0466 171.195 36.8142 171.213 37.5691 171.268Z" fill="#CC0101"/>
<path d="M22.0833 160.78C21.6523 160.44 21.0849 160.121 20.3722 159.835C19.6679 159.553 18.8771 159.324 18.0326 159.148C15.1048 158.54 11.6075 159.46 11.9088 160.753C12.1803 161.917 12.612 163.076 13.2041 164.226C13.8534 165.486 17.804 166.013 20.1674 165.12C20.184 165.114 20.2006 165.108 20.2172 165.102C22.6754 164.16 23.5431 162.825 22.8266 161.602C23.4427 162.087 24.3378 162.532 25.5374 162.895C28.9368 163.924 33.7996 163.922 37.1772 162.883C42.0466 161.384 42.0748 158.517 37.1808 157.006C33.8369 155.973 29.0184 155.957 25.6262 156.965C22.4606 157.906 21.2828 159.413 22.0833 160.78Z" fill="#CC0101"/>
<path d="M26.4504 167.637C24.8947 166.851 22.7502 166.383 20.4935 166.235C17.4874 166.038 15.05 167.191 16.039 168.321C17.0855 169.517 18.315 170.692 19.7276 171.842C21.0325 172.904 24.8024 173.056 26.585 172.106C26.6085 172.094 26.6314 172.082 26.6546 172.069C29.0711 170.749 28.9901 168.921 26.4504 167.637Z" fill="#CC0101"/>
<path d="M11.6018 156.764C11.5733 157.153 12.0479 157.525 12.8794 157.737C16.5257 158.668 21.4503 158.522 24.6925 157.28C27.7298 156.117 28.3468 154.354 26.5304 152.943C26.1301 152.632 25.3727 152.415 24.4995 152.351C18.0128 151.872 11.9346 153.753 11.6413 156.337C11.6253 156.479 11.6123 156.622 11.6018 156.764Z" fill="#CC0101"/>
<path d="M66.2399 163.283C63.424 164.361 62.681 165.957 64.0332 167.308C64.7303 168.005 67.0608 168.176 68.4269 167.653L77.3387 164.241C78.7045 163.718 78.3225 162.801 76.5608 162.512C73.1446 161.951 69.0558 162.205 66.2399 163.283Z" fill="#CC0101"/>
<path d="M41.8506 159.327C41.9899 159.378 42.1342 159.427 42.2831 159.475C45.6038 160.543 50.469 160.592 53.9168 159.588C53.9696 159.573 54.0219 159.557 54.0736 159.541C58.9883 158.05 57.301 154.995 51.2928 154.371C50.5569 154.295 49.7904 154.219 49.0206 154.151C41.3464 153.467 36.0662 157.236 41.8506 159.327Z" fill="#CC0101"/>
<path d="M70.0933 155.714L66.5175 155.45C64.2675 155.284 61.9237 155.595 60.4968 156.297C60.475 156.307 60.4534 156.318 60.4316 156.329C57.5734 157.766 57.8103 159.859 61.0068 161.183C64.6644 162.698 70.7644 162.74 74.5561 161.289C74.6893 161.238 74.819 161.185 74.945 161.131C80.3661 158.795 78.0108 156.298 70.0933 155.714Z" fill="#CC0101"/>
<path d="M47.6744 161.166C43.9201 162.604 43.8504 164.961 47.5193 166.433C51.1882 167.904 57.2059 167.931 60.9602 166.494C64.7146 165.056 64.7842 162.698 61.1153 161.227C57.4464 159.756 51.4287 159.729 47.6744 161.166Z" fill="#CC0101"/>
<path d="M60.689 168.91C60.3993 168.793 60.0853 168.683 59.745 168.579C56.0769 167.46 50.7367 167.553 47.3589 168.805C43.4921 170.238 43.384 172.628 47.0897 174.114C47.0971 174.117 47.1049 174.12 47.1126 174.123C48.3186 174.603 50.313 174.588 51.5428 174.117L60.59 170.653C61.8278 170.179 61.8977 169.395 60.689 168.91Z" fill="#CC0101"/>
<path d="M42.8695 177.422C46.2161 175.975 46.158 173.74 42.627 172.324C41.2051 171.754 39.4294 171.404 37.5705 171.268C36.8057 171.286 36.038 171.267 35.2834 171.213C33.072 171.262 30.8947 171.61 29.1864 172.264C25.5717 173.648 25.3832 175.882 28.6474 177.36C32.6234 178.739 38.7019 178.811 42.8695 177.422Z" fill="#CC0101"/>
<path d="M24.2134 158.19C25.7655 157.596 28.2533 157.607 29.77 158.215C31.2867 158.823 31.258 159.798 29.7059 160.392C28.1538 160.986 25.666 160.975 24.1493 160.367C22.6326 159.759 22.6613 158.784 24.2134 158.19Z" fill="#F50000"/>
<path d="M18.4643 167.927C20.0164 167.332 22.5041 167.344 24.0209 167.952C25.5376 168.56 25.5088 169.535 23.9567 170.129C22.4046 170.723 19.9169 170.712 18.4001 170.104C16.8837 169.496 16.9122 168.521 18.4643 167.927Z" fill="#F50000"/>
<path d="M31.9019 173.314C33.454 172.72 35.9418 172.731 37.4585 173.34C38.9752 173.948 38.9464 174.922 37.3943 175.517C35.8422 176.111 33.3545 176.1 31.8378 175.491C30.321 174.884 30.3498 173.909 31.9019 173.314Z" fill="#F50000"/>
<path d="M31.3501 165.278C32.9022 164.684 35.39 164.695 36.9067 165.303C38.4234 165.912 38.3947 166.886 36.8426 167.481C35.2905 168.075 32.8027 168.064 31.286 167.456C29.7693 166.848 29.798 165.873 31.3501 165.278Z" fill="#F50000"/>
<path d="M48.9095 169.515C50.4616 168.921 52.9494 168.932 54.4661 169.54C55.9828 170.148 55.954 171.123 54.4019 171.717C52.8498 172.312 50.3621 172.3 48.8454 171.692C47.3289 171.084 47.3577 170.109 48.9095 169.515Z" fill="#F50000"/>
<path d="M49.0074 161.398C50.5594 160.804 53.0472 160.815 54.5639 161.424C56.0807 162.032 56.0519 163.006 54.4998 163.601C52.9477 164.195 50.4599 164.184 48.9432 163.575C47.4265 162.967 47.4553 161.993 49.0074 161.398Z" fill="#F50000"/>
<path d="M63.8159 157.881C65.368 157.287 67.8558 157.298 69.3725 157.906C70.8892 158.514 70.8605 159.489 69.3084 160.083C67.7563 160.678 65.2685 160.666 63.7518 160.058C62.2351 159.45 62.2638 158.475 63.8159 157.881Z" fill="#F50000"/>
<path d="M46.0825 155.2C47.6346 154.605 50.1224 154.617 51.6391 155.225C53.1559 155.833 53.1271 156.808 51.575 157.402C50.0229 157.996 47.5351 157.985 46.0184 157.377C44.5017 156.769 44.5304 155.794 46.0825 155.2Z" fill="#F50000"/>
<path d="M17.0816 154.27C18.6337 153.676 21.1214 153.688 22.6382 154.296C24.1549 154.904 24.1261 155.878 22.574 156.473C21.0219 157.067 18.5342 157.056 17.0174 156.448C15.5007 155.84 15.5295 154.865 17.0816 154.27Z" fill="#F50000"/>
<path d="M14.5747 161.076C16.1268 160.482 18.6146 160.493 20.1313 161.102C21.648 161.71 21.6193 162.684 20.0672 163.279C18.5151 163.873 16.0273 163.862 14.5106 163.254C12.9939 162.645 13.0226 161.671 14.5747 161.076Z" fill="#F50000"/>
<path d="M66.8169 163.513C68.369 162.919 70.8568 162.93 72.3735 163.539C73.8902 164.147 73.8615 165.121 72.3094 165.716C70.7573 166.31 68.2695 166.299 66.7528 165.69C65.2361 165.082 65.2648 164.108 66.8169 163.513Z" fill="#F50000"/>
<path d="M177.069 159.079C177.875 151.973 172.738 144.791 161.715 138.774C157.826 136.651 150.043 136.37 145.273 138.196L108.787 152.166C102.504 154.572 105.733 158.753 114.366 159.389L164.211 163.066C170.698 163.545 176.776 161.663 177.069 159.079Z" fill="#A40000"/>
<path d="M126.069 158.461C123.238 159.545 123.186 161.322 125.952 162.431C128.717 163.54 133.253 163.56 136.084 162.477C138.914 161.393 138.966 159.615 136.201 158.507C133.435 157.398 128.899 157.377 126.069 158.461Z" fill="#7E0000"/>
<path d="M148.122 143.768C150.952 142.684 151.004 140.906 148.239 139.797C145.473 138.688 140.937 138.668 138.107 139.752C135.276 140.835 135.224 142.613 137.99 143.722C140.755 144.831 145.292 144.851 148.122 143.768Z" fill="#7E0000"/>
<path d="M105.88 152.945C103.05 154.029 102.997 155.806 105.763 156.915C108.529 158.024 113.065 158.045 115.895 156.961C118.726 155.877 118.778 154.1 116.012 152.991C113.247 151.882 108.71 151.861 105.88 152.945Z" fill="#7E0000"/>
<path d="M166.556 144.52C169.387 143.436 169.439 141.658 166.673 140.549C163.908 139.44 159.371 139.42 156.541 140.504C153.711 141.587 153.659 143.365 156.424 144.474C159.19 145.583 163.726 145.603 166.556 144.52Z" fill="#7E0000"/>
<path d="M167.457 154.646C164.627 155.73 164.575 157.508 167.34 158.617C170.106 159.726 174.642 159.746 177.472 158.663C180.303 157.579 180.355 155.801 177.589 154.692C174.824 153.584 170.287 153.563 167.457 154.646Z" fill="#7E0000"/>
<path d="M169.083 153.164C169.622 152.957 170.058 152.726 170.395 152.479C171.877 152.403 173.312 152.148 174.463 151.707C177.294 150.623 177.346 148.846 174.58 147.737C171.814 146.628 167.278 146.607 164.448 147.691C163.909 147.897 163.473 148.129 163.136 148.375C161.654 148.452 160.219 148.707 159.068 149.148C156.237 150.231 156.185 152.009 158.951 153.118C161.717 154.227 166.253 154.247 169.083 153.164Z" fill="#7E0000"/>
<path d="M151.743 155.878C154.573 154.794 154.626 153.016 151.86 151.908C149.095 150.799 144.558 150.778 141.728 151.862C138.897 152.945 138.845 154.723 141.611 155.832C144.377 156.941 148.913 156.961 151.743 155.878Z" fill="#7E0000"/>
<path d="M145.49 149.555C148.321 148.471 148.373 146.694 145.607 145.585C142.842 144.476 138.305 144.455 135.475 145.539C134.49 145.916 133.849 146.378 133.539 146.866C133.2 146.55 132.712 146.252 132.063 145.991C129.297 144.882 124.761 144.862 121.931 145.945C119.101 147.029 119.048 148.807 121.814 149.915C124.579 151.024 129.116 151.045 131.946 149.961C132.931 149.584 133.572 149.122 133.882 148.634C134.221 148.951 134.709 149.249 135.358 149.509C138.124 150.618 142.66 150.638 145.49 149.555Z" fill="#7E0000"/>
<path d="M151.14 144.148C148.929 144.198 146.751 144.545 145.042 145.199C141.288 146.637 141.219 148.995 144.887 150.466C148.556 151.937 154.574 151.964 158.328 150.527C162.083 149.089 162.152 146.731 158.483 145.26C157.061 144.69 155.286 144.339 153.427 144.204C152.662 144.221 151.895 144.203 151.14 144.148Z" fill="#CC0101"/>
<path d="M166.627 154.637C167.058 154.976 167.625 155.296 168.338 155.582C169.042 155.864 169.833 156.093 170.678 156.268C173.606 156.876 177.103 155.957 176.802 154.664C176.53 153.499 176.098 152.34 175.506 151.191C174.857 149.93 170.906 149.404 168.543 150.296C168.526 150.302 168.51 150.309 168.493 150.315C166.035 151.256 165.167 152.591 165.884 153.814C165.268 153.329 164.373 152.884 163.173 152.521C159.774 151.492 154.911 151.494 151.533 152.534C146.664 154.032 146.636 156.899 151.53 158.41C154.874 159.443 159.692 159.459 163.084 158.451C166.25 157.511 167.428 156.004 166.627 154.637Z" fill="#CC0101"/>
<path d="M162.258 147.779C163.814 148.565 165.958 149.033 168.215 149.181C171.221 149.379 173.659 148.225 172.67 147.096C171.623 145.9 170.393 144.724 168.981 143.575C167.676 142.513 163.906 142.361 162.123 143.311C162.1 143.323 162.077 143.335 162.054 143.348C159.637 144.667 159.718 146.495 162.258 147.779Z" fill="#CC0101"/>
<path d="M177.106 158.653C177.135 158.264 176.66 157.891 175.829 157.679C172.182 156.749 167.258 156.895 164.016 158.136C160.978 159.299 160.361 161.063 162.177 162.473C162.578 162.784 163.335 163.001 164.208 163.066C170.695 163.544 176.773 161.663 177.067 159.08C177.083 158.937 177.096 158.795 177.106 158.653Z" fill="#CC0101"/>
<path d="M122.469 152.134C125.285 151.056 126.028 149.46 124.675 148.109C123.978 147.412 121.648 147.241 120.282 147.764L111.37 151.177C110.004 151.7 110.386 152.616 112.148 152.906C115.564 153.466 119.653 153.212 122.469 152.134Z" fill="#CC0101"/>
<path d="M146.86 156.089C146.721 156.039 146.577 155.99 146.428 155.942C143.107 154.874 138.242 154.824 134.794 155.829C134.742 155.844 134.689 155.86 134.637 155.875C129.723 157.366 131.41 160.422 137.418 161.046C138.154 161.122 138.921 161.197 139.69 161.266C147.365 161.949 152.645 158.18 146.86 156.089Z" fill="#CC0101"/>
<path d="M118.617 159.703L122.193 159.966C124.442 160.132 126.786 159.822 128.213 159.12C128.235 159.11 128.257 159.099 128.279 159.088C131.137 157.65 130.9 155.557 127.703 154.234C124.046 152.719 117.945 152.677 114.154 154.128C114.021 154.18 113.891 154.232 113.765 154.287C108.344 156.622 110.699 159.119 118.617 159.703Z" fill="#CC0101"/>
<path d="M141.037 154.25C144.791 152.813 144.86 150.455 141.192 148.984C137.523 147.513 131.505 147.486 127.751 148.923C123.996 150.361 123.927 152.719 127.596 154.189C131.264 155.661 137.282 155.688 141.037 154.25Z" fill="#CC0101"/>
<path d="M128.022 146.507C128.311 146.623 128.625 146.734 128.966 146.837C132.634 147.957 137.974 147.864 141.352 146.612C145.219 145.179 145.327 142.788 141.621 141.303C141.613 141.3 141.605 141.297 141.598 141.294C140.392 140.813 138.398 140.828 137.168 141.299L128.121 144.763C126.883 145.237 126.813 146.022 128.022 146.507Z" fill="#CC0101"/>
<path d="M145.841 137.994C142.494 139.442 142.553 141.676 146.083 143.092C147.505 143.662 149.281 144.013 151.14 144.148C151.905 144.131 152.672 144.149 153.427 144.204C155.639 144.155 157.816 143.807 159.524 143.153C163.139 141.769 163.327 139.535 160.063 138.057C156.087 136.678 150.008 136.606 145.841 137.994Z" fill="#CC0101"/>
<path d="M164.498 157.227C162.946 157.821 160.458 157.81 158.941 157.202C157.425 156.594 157.453 155.619 159.005 155.025C160.558 154.431 163.045 154.442 164.562 155.05C166.079 155.658 166.05 156.633 164.498 157.227Z" fill="#F50000"/>
<path d="M170.247 147.49C168.695 148.084 166.207 148.073 164.69 147.465C163.174 146.857 163.202 145.882 164.754 145.288C166.307 144.693 168.794 144.705 170.311 145.313C171.827 145.921 171.799 146.896 170.247 147.49Z" fill="#F50000"/>
<path d="M156.808 142.102C155.256 142.696 152.769 142.685 151.252 142.077C149.735 141.469 149.764 140.494 151.316 139.9C152.868 139.306 155.356 139.317 156.873 139.925C158.389 140.533 158.36 141.508 156.808 142.102Z" fill="#F50000"/>
<path d="M157.361 150.138C155.809 150.733 153.321 150.721 151.804 150.113C150.288 149.505 150.316 148.53 151.869 147.936C153.421 147.341 155.908 147.353 157.425 147.961C158.942 148.569 158.913 149.544 157.361 150.138Z" fill="#F50000"/>
<path d="M139.801 145.901C138.249 146.496 135.761 146.484 134.244 145.876C132.727 145.268 132.756 144.293 134.308 143.699C135.86 143.105 138.348 143.116 139.865 143.724C141.381 144.332 141.353 145.307 139.801 145.901Z" fill="#F50000"/>
<path d="M139.703 154.018C138.151 154.613 135.663 154.601 134.146 153.993C132.63 153.385 132.658 152.41 134.21 151.816C135.763 151.222 138.25 151.233 139.767 151.841C141.284 152.449 141.255 153.424 139.703 154.018Z" fill="#F50000"/>
<path d="M124.893 157.536C123.341 158.13 120.854 158.119 119.337 157.511C117.82 156.902 117.849 155.928 119.401 155.333C120.953 154.739 123.441 154.75 124.957 155.359C126.474 155.967 126.445 156.941 124.893 157.536Z" fill="#F50000"/>
<path d="M142.628 160.217C141.076 160.812 138.588 160.8 137.071 160.192C135.554 159.584 135.583 158.609 137.135 158.015C138.687 157.421 141.175 157.432 142.692 158.04C144.209 158.648 144.18 159.623 142.628 160.217Z" fill="#F50000"/>
<path d="M171.629 161.146C170.077 161.74 167.589 161.729 166.072 161.121C164.555 160.513 164.584 159.538 166.136 158.944C167.688 158.349 170.176 158.361 171.693 158.969C173.21 159.577 173.181 160.552 171.629 161.146Z" fill="#F50000"/>
<path d="M174.136 154.34C172.583 154.934 170.096 154.923 168.579 154.315C167.062 153.707 167.091 152.732 168.643 152.138C170.195 151.543 172.683 151.555 174.2 152.163C175.716 152.771 175.688 153.746 174.136 154.34Z" fill="#F50000"/>
<path d="M121.893 151.903C120.341 152.498 117.854 152.486 116.337 151.878C114.82 151.27 114.849 150.295 116.401 149.701C117.953 149.107 120.441 149.118 121.957 149.726C123.474 150.334 123.445 151.309 121.893 151.903Z" fill="#F50000"/>
<path d="M107.271 140.417C107.893 141.37 106.425 142.34 103.993 142.583C101.562 142.827 99.0864 142.252 98.465 141.299C97.8434 140.346 99.3109 139.376 101.743 139.133C104.174 138.89 106.649 139.464 107.271 140.417ZM122.729 133.7C120.297 133.944 118.83 134.914 119.451 135.866C120.073 136.819 122.548 137.394 124.98 137.151C127.411 136.907 128.879 135.937 128.257 134.985C127.636 134.032 125.161 133.457 122.729 133.7ZM155.275 152.412C152.843 152.656 151.376 153.626 151.998 154.578C152.619 155.531 155.094 156.106 157.526 155.863C159.958 155.619 161.425 154.649 160.803 153.696C160.182 152.744 157.707 152.169 155.275 152.412ZM129.455 176.57C127.023 176.814 125.556 177.784 126.177 178.736C126.799 179.689 129.274 180.264 131.706 180.02C134.137 179.777 135.604 178.807 134.983 177.854C134.361 176.901 131.886 176.326 129.455 176.57ZM84.9503 180.73C82.5186 180.974 81.0511 181.943 81.6728 182.896C82.2945 183.849 84.7695 184.424 87.2012 184.18C89.6329 183.937 91.1001 182.967 90.4787 182.014C89.8573 181.062 87.382 180.487 84.9503 180.73ZM87.3729 173.577C84.9412 173.821 83.4737 174.79 84.0953 175.743C84.717 176.696 87.1921 177.271 89.6237 177.027C92.0554 176.784 93.5226 175.814 92.9012 174.861C92.2796 173.908 89.8042 173.334 87.3729 173.577ZM66.7929 171.399C64.3612 171.643 62.894 172.613 63.5153 173.565C64.137 174.518 66.6121 175.093 69.0437 174.849C71.4754 174.606 72.9426 173.636 72.3212 172.683C71.6999 171.73 69.2245 171.156 66.7929 171.399ZM54.7164 162.614C52.2847 162.857 50.8175 163.827 51.4389 164.78C52.0602 165.732 54.5356 166.307 56.9672 166.064C59.3989 165.82 60.8664 164.851 60.2448 163.898C59.6234 162.945 57.148 162.37 54.7164 162.614ZM34.9982 165.394C32.5666 165.638 31.0993 166.607 31.7207 167.56C32.3424 168.513 34.8175 169.088 37.2491 168.844C39.6808 168.601 41.148 167.631 40.5266 166.678C39.905 165.726 37.4299 165.151 34.9982 165.394ZM46.2007 156.036C43.769 156.279 42.3018 157.249 42.9232 158.202C43.5446 159.154 46.0199 159.729 48.4516 159.486C50.8832 159.242 52.3505 158.273 51.7291 157.32C51.1077 156.367 48.6324 155.792 46.2007 156.036ZM43.3519 147.948C40.9202 148.191 39.453 149.161 40.0744 150.114C40.6961 151.067 43.1711 151.642 45.6028 151.398C48.0345 151.155 49.5017 150.185 48.8803 149.232C48.2586 148.279 45.7836 147.704 43.3519 147.948ZM78.2806 146.754C75.8489 146.998 74.3817 147.967 75.0031 148.92C75.6245 149.873 78.0998 150.448 80.5315 150.204C82.9631 149.961 84.4306 148.991 83.809 148.038C83.1873 147.085 80.7122 146.51 78.2806 146.754ZM85.4703 135.098C83.0386 135.341 81.5714 136.311 82.1928 137.264C82.8144 138.217 85.2895 138.792 87.7211 138.548C90.1528 138.305 91.62 137.335 90.9987 136.382C90.3773 135.429 87.9019 134.854 85.4703 135.098ZM126.405 166.326C123.974 166.57 122.506 167.54 123.128 168.492C123.749 169.445 126.224 170.02 128.656 169.777C131.088 169.533 132.555 168.564 131.934 167.611C131.312 166.658 128.837 166.083 126.405 166.326ZM130.369 150.15C127.938 150.394 126.47 151.363 127.092 152.316C127.713 153.269 130.189 153.844 132.62 153.6C135.052 153.357 136.519 152.387 135.898 151.434C135.276 150.482 132.801 149.907 130.369 150.15Z" fill="#FF3C3C"/>
<path opacity="0.2" d="M94.2692 171.828C128.914 171.828 156.999 160.823 156.999 147.249C156.999 133.674 128.914 122.669 94.2692 122.669C59.6243 122.669 31.5391 133.674 31.5391 147.249C31.5391 160.823 59.6243 171.828 94.2692 171.828Z" fill="white"/>
<path opacity="0.2" d="M107.103 149.211C120.669 149.211 131.666 144.902 131.666 139.587C131.666 134.272 120.669 129.963 107.103 129.963C93.538 129.963 82.541 134.272 82.541 139.587C82.541 144.902 93.538 149.211 107.103 149.211Z" fill="white"/>
<path d="M189.526 109.217C189.571 108.591 189.554 107.967 189.488 107.345C188.086 63.781 146.219 28.8313 94.7671 28.8313C43.2328 28.8313 1.31571 63.8937 0.0419647 107.555C-0.00198601 108.043 -0.0108196 108.529 0.0126761 109.014C0.0121233 109.087 0.00851537 109.16 0.00823895 109.233H0.0217866C0.982898 123.059 29.2145 135.547 71.3066 139.14C122.009 143.469 173.619 133.251 186.579 116.318C188.392 113.95 189.351 111.576 189.524 109.233H189.526C189.526 109.228 189.526 109.223 189.526 109.217Z" fill="#8B0000"/>
<path opacity="0.2" d="M186.579 116.319C188.392 113.951 189.351 111.577 189.524 109.233H189.526C189.526 109.228 189.526 109.223 189.526 109.218C189.571 108.591 189.554 107.967 189.488 107.345C189.882 124.494 86.8972 154.233 47.3802 117.258C7.86381 80.282 72.3805 31.1056 72.3821 31.1045C31.5992 39.5245 1.12498 70.4285 0.0419647 107.556C-0.00198601 108.043 -0.0108196 108.53 0.0126761 109.015C0.0121233 109.088 0.00851537 109.16 0.00823895 109.233H0.0217866C0.982898 123.059 29.2145 135.548 71.3066 139.141C122.009 143.469 173.619 133.251 186.579 116.319Z" fill="black"/>
<path d="M123.926 6.86046C123.926 6.86046 109.133 5.02503 101.465 19.9348C101.465 19.9348 102.777 6.50968 95.142 0C87.5073 6.50968 88.8194 19.9348 88.8194 19.9348C81.151 5.02503 66.3584 6.86046 66.3584 6.86046C75.2599 11.5267 75.2008 29.6366 75.1571 31.9342C75.1488 32.0147 75.1391 32.0954 75.1391 32.1766C75.1391 35.9655 84.0893 39.0371 95.1301 39.0371C95.134 39.0371 95.1378 39.0371 95.1417 39.0371H95.142C106.173 39.0349 115.114 35.9666 115.121 32.1808L115.133 32.1766C115.133 32.1766 114.416 11.8457 123.926 6.86046Z" fill="#A40000"/>
<path opacity="0.2" d="M132.036 100.004C147.309 100.004 159.691 87.6222 159.691 72.3488C159.691 57.0754 147.309 44.6938 132.036 44.6938C116.762 44.6938 104.381 57.0754 104.381 72.3488C104.381 87.6222 116.762 100.004 132.036 100.004Z" fill="white"/>
<path opacity="0.2" d="M145.861 79.7328C152.196 73.3984 152.196 63.1284 145.861 56.7941C139.527 50.4597 129.257 50.4597 122.923 56.794C116.588 63.1284 116.588 73.3984 122.923 79.7328C129.257 86.0672 139.527 86.0672 145.861 79.7328Z" fill="white"/>
<path opacity="0.2" d="M157.114 216.841C159.173 208.123 153.774 199.386 145.056 197.328C136.338 195.269 127.602 200.668 125.543 209.386C123.484 218.105 128.883 226.841 137.601 228.9C146.319 230.958 155.055 225.559 157.114 216.841Z" fill="white"/>
<path opacity="0.2" d="M150.868 213.081C150.868 217.067 147.637 220.299 143.651 220.299C139.665 220.299 136.434 217.067 136.434 213.081C136.434 209.095 139.665 205.864 143.651 205.864C147.637 205.864 150.868 209.095 150.868 213.081Z" fill="white"/>
<path opacity="0.2" d="M101.463 19.9347C101.463 19.9347 102.756 6.66353 95.2649 0.11377C94.3434 2.15071 93.8262 4.40961 93.8262 6.79041C93.8262 15.7486 101.088 23.0107 110.046 23.0107C112.1 23.0107 114.063 22.6251 115.871 21.9288C116.836 16.0867 119.017 9.43243 123.924 6.86035C123.924 6.86035 109.131 5.02492 101.463 19.9347Z" fill="white"/>
<path opacity="0.2" d="M115.121 32.1806L115.133 32.1764C115.133 32.1764 115.086 30.7971 115.181 28.6786C113.343 35.6555 94.2511 35.7566 86.1849 29.2129C75.3791 20.4466 71.6505 7.10159 71.6505 7.10159C68.5366 6.59408 66.3584 6.86083 66.3584 6.86083C75.2599 11.5271 75.2008 29.637 75.1571 31.9346C75.1488 32.015 75.1391 32.0957 75.1391 32.177C75.1391 35.9659 84.0893 39.0375 95.1301 39.0375C95.134 39.0375 95.1378 39.0375 95.1417 39.0375H95.1422C106.173 39.0347 115.114 35.9664 115.121 32.1806Z" fill="black"/>
</svg>
