<svg width="391" height="184" viewBox="0 0 391 184" fill="none" xmlns="http://www.w3.org/2000/svg">
<g opacity="0.6">
<path d="M0.183594 195.002C0.183594 87.3033 87.4869 0 195.176 0C302.865 0 390.168 87.3033 390.168 195.002C390.168 302.694 302.865 390 195.176 390C87.4869 390 0.183594 302.69 0.183594 195.002Z" fill="#306E00"/>
<path d="M6.39844 195.001C6.39844 90.7373 90.9182 6.2207 195.176 6.2207C299.437 6.2207 383.957 90.7373 383.957 195.001C383.957 299.259 299.437 383.779 195.176 383.779C90.9182 383.779 6.39844 299.259 6.39844 195.001Z" fill="#2D6500"/>
<path d="M13.0078 195.002C13.0078 94.3876 94.5657 12.8359 195.174 12.8359C295.782 12.8359 377.34 94.3876 377.34 195.002C377.34 295.61 295.782 377.165 195.174 377.165C94.5657 377.165 13.0078 295.61 13.0078 195.002Z" fill="#EFE8D0"/>
<path d="M20.0059 195.002C20.0059 98.2505 98.4331 19.8296 195.175 19.8296C291.918 19.8296 370.345 98.2505 370.345 195.002C370.345 291.744 291.918 370.172 195.175 370.172C98.4331 370.172 20.0059 291.741 20.0059 195.002Z" fill="#FA3F00"/>
<path d="M178.764 144.069C181.035 148.163 180.384 152.87 177.313 154.574C174.236 156.282 169.901 154.343 167.627 150.239C165.353 146.136 166.007 141.432 169.085 139.731C172.156 138.023 176.488 139.965 178.764 144.069Z" fill="#712204"/>
<path d="M175.673 144.838C177.324 147.04 177.925 149.379 177.005 150.074C176.095 150.752 174.015 149.52 172.364 147.318C170.712 145.11 170.115 142.771 171.025 142.089C171.945 141.395 174.018 142.63 175.673 144.838Z" fill="#AD644C"/>
<path d="M171.093 98.2867C172.153 102.85 170.239 107.2 166.814 107.991C163.386 108.792 159.755 105.734 158.689 101.161C157.629 96.601 159.543 92.2473 162.974 91.456C166.395 90.6585 170.029 93.7173 171.093 98.2867Z" fill="#712204"/>
<path d="M167.908 98.1807C168.89 100.752 168.828 103.169 167.752 103.579C166.692 103.979 165.025 102.231 164.042 99.6569C163.06 97.0892 163.129 94.6652 164.186 94.2587C165.262 93.8489 166.92 95.6005 167.908 98.1807Z" fill="#AD644C"/>
<path d="M210.285 96.5386C209.513 101.164 206.079 104.439 202.61 103.86C199.135 103.285 196.955 99.0626 197.725 94.4369C198.5 89.8112 201.938 86.5335 205.409 87.1152C208.871 87.6907 211.058 91.9161 210.285 96.5386Z" fill="#712204"/>
<path d="M207.389 95.2099C207.307 97.9684 206.316 100.17 205.168 100.142C204.03 100.108 203.163 97.8497 203.248 95.1005C203.329 92.342 204.321 90.1401 205.453 90.1682C206.607 90.2058 207.461 92.4639 207.389 95.2099Z" fill="#AD644C"/>
<path d="M253.63 114.275C250.834 118.034 246.293 119.401 243.466 117.306C240.629 115.213 240.61 110.469 243.397 106.7C246.183 102.931 250.734 101.561 253.564 103.666C256.392 105.755 256.414 110.503 253.63 114.275Z" fill="#712204"/>
<path d="M251.648 111.779C250.325 114.191 248.439 115.701 247.432 115.157C246.434 114.61 246.691 112.198 248.011 109.793C249.34 107.369 251.226 105.859 252.217 106.397C253.227 106.953 252.968 109.358 251.648 111.779Z" fill="#AD644C"/>
<path d="M105.308 151.028C109.474 153.164 111.554 157.433 109.947 160.561C108.345 163.695 103.66 164.492 99.4912 162.353C95.3159 160.21 93.2423 155.941 94.8436 152.811C96.4449 149.68 101.127 148.885 105.308 151.028Z" fill="#712204"/>
<path d="M103.16 153.385C105.759 154.296 107.561 155.903 107.179 156.988C106.804 158.064 104.393 158.199 101.791 157.289C99.2009 156.375 97.3932 154.762 97.7654 153.695C98.1469 152.607 100.561 152.475 103.16 153.385Z" fill="#AD644C"/>
<path d="M132.693 117.156C135.561 120.859 135.627 125.61 132.846 127.758C130.066 129.913 125.49 128.656 122.616 124.95C119.745 121.24 119.676 116.493 122.456 114.335C125.24 112.18 129.816 113.45 132.693 117.156Z" fill="#712204"/>
<path d="M129.749 118.382C131.716 120.311 132.667 122.538 131.86 123.358C131.065 124.168 128.82 123.273 126.853 121.343C124.885 119.417 123.938 117.19 124.732 116.377C125.542 115.551 127.772 116.452 129.749 118.382Z" fill="#AD644C"/>
<path d="M288.067 158.29C283.698 159.979 279.138 158.678 277.862 155.4C276.592 152.126 279.113 148.094 283.488 146.405C287.864 144.716 292.436 146.008 293.703 149.286C294.97 152.573 292.446 156.589 288.067 158.29Z" fill="#712204"/>
<path d="M287.735 155.125C285.327 156.454 282.925 156.729 282.368 155.716C281.821 154.724 283.325 152.823 285.737 151.5C288.135 150.161 290.547 149.886 291.094 150.88C291.654 151.888 290.153 153.777 287.735 155.125Z" fill="#AD644C"/>
<path d="M220.792 148.582C219.497 153.083 215.71 155.954 212.335 154.984C208.948 154.012 207.259 149.583 208.547 145.07C209.839 140.563 213.627 137.701 217.014 138.665C220.388 139.631 222.08 144.069 220.792 148.582Z" fill="#712204"/>
<path d="M218.058 146.937C217.667 149.664 216.438 151.744 215.3 151.578C214.171 151.419 213.57 149.08 213.961 146.349C214.352 143.622 215.588 141.542 216.71 141.705C217.852 141.867 218.452 144.207 218.058 146.937Z" fill="#AD644C"/>
<path d="M247.307 181.487C243.21 183.755 238.506 183.111 236.801 180.03C235.09 176.956 237.033 172.621 241.136 170.344C245.233 168.07 249.94 168.724 251.651 171.801C253.352 174.879 251.41 179.214 247.307 181.487Z" fill="#712204"/>
<path d="M246.544 178.394C244.335 180.039 241.999 180.649 241.308 179.723C240.62 178.813 241.852 176.736 244.057 175.082C246.265 173.434 248.611 172.833 249.283 173.743C249.974 174.663 248.745 176.746 246.544 178.394Z" fill="#AD644C"/>
<path d="M145.866 170.578C150.354 171.886 153.232 175.657 152.265 179.048C151.299 182.432 146.848 184.124 142.351 182.823C137.844 181.544 134.967 177.756 135.933 174.369C136.918 170.982 141.359 169.299 145.866 170.578Z" fill="#712204"/>
<path d="M144.209 173.309C146.94 173.725 149.016 174.936 148.86 176.083C148.707 177.216 146.358 177.801 143.631 177.422C140.903 177.031 138.82 175.796 138.992 174.673C139.146 173.522 141.488 172.918 144.209 173.309Z" fill="#AD644C"/>
</g>
</svg>
