<svg width="24" height="24" viewBox="0 0 24 24" fill="none" xmlns="http://www.w3.org/2000/svg">
<path d="M2.61612 19.6161C2.12796 20.1043 2.12796 20.8957 2.61612 21.3839C3.10427 21.872 3.89573 21.872 4.38388 21.3839L2.61612 19.6161ZM21.3839 4.38388C21.872 3.89573 21.872 3.10427 21.3839 2.61612C20.8957 2.12796 20.1043 2.12796 19.6161 2.61612L21.3839 4.38388ZM4.38388 21.3839L11.8839 13.8839L10.1161 12.1161L2.61612 19.6161L4.38388 21.3839ZM13.8839 11.8839L21.3839 4.38388L19.6161 2.61612L12.1161 10.1161L13.8839 11.8839Z" fill="#282107"/>
<path d="M6.20277 2.25H4.27026C3.193 2.25 2.65437 2.25 2.42917 2.53354C2.35894 2.62196 2.30958 2.7251 2.28478 2.83527C2.20525 3.18852 2.54314 3.60798 3.21894 4.44689L16.7523 21.2469C16.929 21.4662 17.0173 21.5759 17.1337 21.645C17.1721 21.6678 17.2125 21.6871 17.2543 21.7027C17.3811 21.75 17.5219 21.75 17.8036 21.75H19.7289C20.8059 21.75 21.3443 21.75 21.5695 21.4665C21.6398 21.3781 21.6891 21.275 21.714 21.1648C21.7935 20.8117 21.4558 20.3922 20.7805 19.5534L7.25431 2.75338C7.07762 2.53393 6.98928 2.4242 6.87287 2.35509C6.83445 2.33228 6.79407 2.31295 6.75221 2.29733C6.62538 2.25 6.48451 2.25 6.20277 2.25Z" fill="#282107"/>
</svg>
